<svg width="148" height="131" viewBox="0 0 148 131" fill="none" xmlns="http://www.w3.org/2000/svg">
  <g clip-path="url(#clip0_11492_115858)">
    <path d="M3.58607 54.7423C5.50983 56.6663 8.04128 57.8636 10.749 58.1303C13.4567 58.3969 16.173 57.7162 18.4351 56.2044L10.0619 64.5758C7.99791 66.6402 6.77552 69.3984 6.63243 72.3141C6.48935 75.2298 7.4358 78.0945 9.28773 80.351C11.1397 82.6076 13.7647 84.0947 16.6523 84.5232C19.5398 84.9516 22.4836 84.2907 24.9109 82.6691L20.5177 87.0615C18.4537 89.1259 17.2313 91.8841 17.0882 94.7998C16.9451 97.7155 17.8916 100.58 19.7435 102.837C21.5955 105.093 24.2205 106.58 27.108 107.009C29.9956 107.437 32.9393 106.776 35.3667 105.155L34.2932 106.228C33.1912 107.318 32.3154 108.615 31.7163 110.044C31.1172 111.473 30.8065 113.007 30.8022 114.557C30.7978 116.107 31.0999 117.642 31.691 119.075C32.2821 120.508 33.1506 121.809 34.2465 122.905C35.3425 124.001 36.6442 124.87 38.0769 125.461C39.5097 126.052 41.0451 126.354 42.595 126.35C44.1449 126.345 45.6786 126.035 47.108 125.436C48.5374 124.837 49.8342 123.961 50.924 122.859L62.0683 111.716C60.4462 114.143 59.785 117.087 60.2133 119.975C60.6415 122.863 62.1287 125.488 64.3854 127.34C66.6421 129.192 69.507 130.139 72.423 129.996C75.3389 129.852 78.0973 128.63 80.1616 126.565L97.0932 109.633C95.4716 112.061 94.8108 115.004 95.2392 117.892C95.6677 120.779 97.1548 123.404 99.4113 125.256C101.668 127.108 104.533 128.055 107.448 127.912C110.364 127.769 113.122 126.546 115.187 124.482L141.544 98.1224C143.608 96.058 144.831 93.2998 144.974 90.3841C145.117 87.4684 144.17 84.6037 142.318 82.3472C140.466 80.0906 137.841 78.6035 134.954 78.175C132.066 77.7466 129.122 78.4074 126.695 80.0291L132.213 74.5112C134.278 72.447 135.501 69.6886 135.644 66.7725C135.788 63.8565 134.841 60.9914 132.989 58.7346C131.137 56.4778 128.511 54.9906 125.623 54.5625C122.735 54.1344 119.791 54.7959 117.364 56.4183L128.508 45.2745C130.572 43.2101 131.794 40.4518 131.937 37.5361C132.08 34.6205 131.134 31.7558 129.282 29.4992C127.43 27.2427 124.805 25.7556 121.917 25.3271C119.03 24.8987 116.086 25.5595 113.659 27.1811L120.756 20.0847C122.953 17.8777 124.185 14.8891 124.182 11.7746C124.179 8.66012 122.94 5.67416 120.738 3.47187C118.535 1.26957 115.549 0.0308026 112.435 0.027351C109.321 0.0238994 106.332 1.25605 104.125 3.45346L88.3187 19.2613C89.9391 16.8342 90.5991 13.8912 90.1705 11.0045C89.7418 8.11779 88.2551 5.49361 85.9993 3.64207C83.7435 1.79053 80.8798 0.843934 77.9649 0.986282C75.05 1.12863 72.2922 2.34976 70.2276 4.41228L48.0387 26.6007C49.6611 24.1734 50.3226 21.2295 49.8945 18.3415C49.4664 15.4535 47.9792 12.828 45.7224 10.9758C43.4656 9.12361 40.6005 8.17716 37.6845 8.32056C34.7685 8.46397 32.01 9.68699 29.9459 11.7517L3.58607 38.1115C2.49404 39.2035 1.62779 40.4998 1.03679 41.9266C0.445788 43.3534 0.141602 44.8826 0.141602 46.4269C0.141602 47.9712 0.445788 49.5004 1.03679 50.9272C1.62779 52.354 2.49404 53.6503 3.58607 54.7423Z" fill="white"/>
    <path d="M144.644 104.864L143.83 105.678C143.678 105.83 143.592 106.037 143.592 106.253C143.592 106.469 143.678 106.677 143.83 106.829C143.983 106.982 144.19 107.068 144.406 107.068C144.622 107.068 144.829 106.982 144.982 106.829L145.796 106.016L146.609 106.829C146.685 106.905 146.775 106.965 146.873 107.006C146.972 107.047 147.078 107.068 147.185 107.068C147.292 107.068 147.398 107.047 147.497 107.006C147.595 106.965 147.685 106.905 147.761 106.829C147.836 106.754 147.896 106.664 147.937 106.565C147.978 106.466 147.999 106.36 147.999 106.253C147.999 106.147 147.978 106.041 147.937 105.942C147.896 105.843 147.836 105.753 147.761 105.678L146.948 104.864L147.761 104.05C147.914 103.898 147.999 103.69 147.999 103.474C147.999 103.258 147.914 103.051 147.761 102.899C147.608 102.746 147.401 102.66 147.185 102.66C146.969 102.66 146.762 102.746 146.609 102.899L145.796 103.712L144.982 102.899C144.829 102.746 144.622 102.66 144.406 102.66C144.19 102.66 143.983 102.746 143.83 102.899C143.678 103.051 143.592 103.258 143.592 103.474C143.592 103.69 143.678 103.898 143.83 104.05L144.644 104.864Z" fill="white"/>
    <path d="M28.3728 122.4L27.559 123.213C27.4809 123.288 27.4184 123.378 27.3754 123.478C27.3324 123.577 27.3097 123.684 27.3086 123.793C27.3075 123.901 27.3281 124.009 27.3691 124.109C27.41 124.209 27.4706 124.3 27.5473 124.377C27.6239 124.454 27.7151 124.514 27.8155 124.555C27.9158 124.596 28.0234 124.617 28.1317 124.615C28.2401 124.614 28.3472 124.592 28.4466 124.549C28.5461 124.506 28.636 124.443 28.711 124.365L29.5243 123.551L30.3381 124.365C30.4908 124.518 30.6979 124.603 30.9138 124.603C31.1298 124.603 31.3369 124.518 31.4896 124.365C31.6423 124.212 31.7281 124.005 31.7281 123.789C31.7281 123.573 31.6423 123.366 31.4896 123.213L30.6763 122.4L31.4896 121.586C31.6423 121.433 31.7281 121.226 31.7281 121.01C31.7281 120.794 31.6423 120.587 31.4896 120.434C31.3369 120.282 31.1298 120.196 30.9138 120.196C30.6979 120.196 30.4908 120.282 30.3381 120.434L29.5243 121.248L28.711 120.434C28.636 120.356 28.5461 120.294 28.4466 120.251C28.3472 120.208 28.2401 120.185 28.1317 120.184C28.0234 120.183 27.9158 120.203 27.8155 120.244C27.7151 120.285 27.6239 120.345 27.5473 120.422C27.4706 120.499 27.41 120.59 27.3691 120.69C27.3281 120.791 27.3075 120.898 27.3086 121.006C27.3097 121.115 27.3324 121.222 27.3754 121.321C27.4184 121.421 27.4809 121.511 27.559 121.586L28.3728 122.4Z" fill="white"/>
    <path d="M7.55519 50.2737L6.74147 51.0874C6.66328 51.1625 6.60086 51.2524 6.55787 51.3519C6.51487 51.4514 6.49216 51.5584 6.49106 51.6668C6.48997 51.7752 6.51052 51.8827 6.5515 51.983C6.59248 52.0834 6.65307 52.1745 6.72972 52.2512C6.80638 52.3278 6.89755 52.3883 6.99791 52.4293C7.09826 52.4702 7.20578 52.4907 7.31416 52.4896C7.42254 52.4885 7.5296 52.4657 7.62908 52.4227C7.72855 52.3796 7.81844 52.3172 7.89347 52.239L8.70499 51.4261L9.51871 52.2398C9.67247 52.3875 9.87796 52.4689 10.0911 52.4668C10.3042 52.4646 10.508 52.379 10.6588 52.2283C10.8095 52.0776 10.8952 51.8739 10.8974 51.6607C10.8997 51.4476 10.8183 51.2421 10.6707 51.0883L9.85699 50.2746L10.6707 49.4608C10.8183 49.307 10.8997 49.1015 10.8974 48.8884C10.8952 48.6752 10.8095 48.4715 10.6588 48.3208C10.508 48.1701 10.3042 48.0845 10.0911 48.0823C9.87796 48.0802 9.67247 48.1617 9.51871 48.3093L8.70499 49.123L7.89171 48.3093C7.81668 48.2311 7.72679 48.1686 7.62731 48.1256C7.52784 48.0825 7.42078 48.0598 7.3124 48.0586C7.20402 48.0575 7.0965 48.078 6.99615 48.119C6.89579 48.1599 6.80462 48.2205 6.72796 48.2971C6.65131 48.3737 6.59071 48.4649 6.54973 48.5652C6.50875 48.6655 6.48821 48.773 6.4893 48.8814C6.49039 48.9898 6.5131 49.0969 6.5561 49.1964C6.5991 49.2959 6.66152 49.3858 6.73971 49.4608L7.55519 50.2737Z" fill="white"/>
    <path d="M105.491 8.45769L104.677 9.27141C104.601 9.34703 104.541 9.43679 104.5 9.53559C104.46 9.63438 104.438 9.74026 104.438 9.8472C104.438 9.95413 104.46 10.06 104.5 10.1588C104.541 10.2576 104.601 10.3474 104.677 10.423C104.753 10.4986 104.842 10.5586 104.941 10.5995C105.04 10.6404 105.146 10.6615 105.253 10.6615C105.36 10.6615 105.466 10.6404 105.564 10.5995C105.663 10.5586 105.753 10.4986 105.829 10.423L106.642 9.60925L107.456 10.423C107.609 10.5757 107.816 10.6615 108.032 10.6615C108.139 10.6615 108.245 10.6404 108.343 10.5995C108.442 10.5586 108.532 10.4986 108.608 10.423C108.683 10.3474 108.743 10.2576 108.784 10.1588C108.825 10.06 108.846 9.95413 108.846 9.8472C108.846 9.74026 108.825 9.63438 108.784 9.53559C108.743 9.43679 108.683 9.34703 108.608 9.27141L107.794 8.45769L108.608 7.64397C108.76 7.49126 108.846 7.28415 108.846 7.06819C108.846 6.85223 108.76 6.64511 108.608 6.4924C108.532 6.41679 108.442 6.35681 108.343 6.31589C108.245 6.27497 108.139 6.25391 108.032 6.25391C107.816 6.25391 107.609 6.3397 107.456 6.4924L106.642 7.30613L105.829 6.4924C105.753 6.41679 105.663 6.35681 105.564 6.31589C105.466 6.27497 105.36 6.25391 105.253 6.25391C105.146 6.25391 105.04 6.27497 104.941 6.31589C104.842 6.35681 104.753 6.41679 104.677 6.4924C104.601 6.56802 104.541 6.65778 104.5 6.75657C104.46 6.85537 104.438 6.96125 104.438 7.06819C104.438 7.17512 104.46 7.281 104.5 7.3798C104.541 7.47859 104.601 7.56835 104.677 7.64397L105.491 8.45769Z" fill="white"/>
    <path d="M90.5928 123.535C91.0634 123.535 91.5233 123.675 91.9145 123.936C92.3058 124.197 92.6107 124.569 92.7907 125.004C92.9708 125.438 93.0179 125.917 92.9261 126.378C92.8343 126.84 92.6077 127.264 92.275 127.596C91.9423 127.929 91.5184 128.156 91.057 128.247C90.5955 128.339 90.1172 128.292 89.6825 128.112C89.2478 127.932 88.8762 127.627 88.6148 127.236C88.3534 126.845 88.2139 126.385 88.2139 125.914C88.2146 125.283 88.4654 124.679 88.9114 124.233C89.3574 123.787 89.9621 123.536 90.5928 123.535ZM90.5928 126.667C90.7411 126.667 90.8861 126.623 91.0094 126.54C91.1327 126.458 91.2288 126.341 91.2856 126.204C91.3423 126.067 91.3571 125.916 91.3282 125.771C91.2993 125.625 91.2279 125.491 91.123 125.387C91.0182 125.282 90.8846 125.21 90.7391 125.181C90.5937 125.152 90.4429 125.167 90.3059 125.224C90.1689 125.281 90.0518 125.377 89.9694 125.5C89.887 125.624 89.8431 125.768 89.8431 125.917C89.8437 126.115 89.9229 126.305 90.0635 126.446C90.204 126.586 90.3944 126.664 90.5928 126.664V126.667Z" fill="white"/>
    <path d="M135.43 47.7305C135.9 47.7305 136.36 47.87 136.751 48.1314C137.143 48.3928 137.448 48.7643 137.628 49.1991C137.808 49.6338 137.855 50.1121 137.763 50.5736C137.671 51.035 137.445 51.4589 137.112 51.7916C136.779 52.1244 136.355 52.3509 135.894 52.4427C135.432 52.5345 134.954 52.4874 134.519 52.3073C134.085 52.1273 133.713 51.8224 133.452 51.4311C133.19 51.0399 133.051 50.58 133.051 50.1095C133.051 49.4787 133.302 48.874 133.748 48.428C134.194 47.982 134.799 47.7312 135.43 47.7305ZM135.43 50.8597C135.578 50.8597 135.723 50.8157 135.846 50.7333C135.97 50.6509 136.066 50.5338 136.122 50.3968C136.179 50.2598 136.194 50.1091 136.165 49.9636C136.136 49.8182 136.065 49.6846 135.96 49.5797C135.855 49.4749 135.721 49.4035 135.576 49.3745C135.431 49.3456 135.28 49.3604 135.143 49.4172C135.006 49.4739 134.889 49.57 134.806 49.6933C134.724 49.8166 134.68 49.9616 134.68 50.1099C134.68 50.3087 134.759 50.4995 134.9 50.6401C135.04 50.7807 135.231 50.8597 135.43 50.8597Z" fill="white"/>
    <path d="M35.8399 9.55078C36.3104 9.55078 36.7704 9.69031 37.1616 9.95171C37.5528 10.2131 37.8578 10.5847 38.0378 11.0194C38.2179 11.4541 38.265 11.9324 38.1732 12.3939C38.0814 12.8554 37.8548 13.2793 37.5221 13.612C37.1894 13.9447 36.7655 14.1712 36.304 14.263C35.8426 14.3548 35.3642 14.3077 34.9295 14.1277C34.4948 13.9476 34.1233 13.6427 33.8619 13.2515C33.6005 12.8602 33.4609 12.4003 33.4609 11.9298C33.4616 11.299 33.7125 10.6943 34.1585 10.2483C34.6045 9.80235 35.2092 9.55148 35.8399 9.55078ZM35.8399 12.68C35.9882 12.68 36.1332 12.636 36.2565 12.5536C36.3798 12.4712 36.4759 12.3541 36.5326 12.2171C36.5894 12.0801 36.6042 11.9294 36.5753 11.7839C36.5464 11.6385 36.4749 11.5049 36.3701 11.4C36.2652 11.2952 36.1316 11.2238 35.9862 11.1948C35.8408 11.1659 35.69 11.1808 35.553 11.2375C35.416 11.2943 35.2989 11.3904 35.2165 11.5137C35.1341 11.637 35.0902 11.7819 35.0902 11.9302C35.0902 12.1291 35.1691 12.3198 35.3098 12.4604C35.4504 12.601 35.6411 12.68 35.8399 12.68Z" fill="white"/>
    <path d="M8.12517 83.8242C8.59573 83.824 9.05576 83.9634 9.4471 84.2247C9.83844 84.486 10.1435 84.8575 10.3237 85.2922C10.5039 85.7269 10.5511 86.2052 10.4594 86.6668C10.3677 87.1283 10.1412 87.5523 9.80856 87.8851C9.47589 88.2179 9.052 88.4445 8.59049 88.5364C8.12899 88.6283 7.65061 88.5812 7.21586 88.4012C6.78111 88.2211 6.40951 87.9162 6.14806 87.525C5.88662 87.1337 5.74707 86.6738 5.74707 86.2032C5.74777 85.5726 5.99852 84.9681 6.44432 84.5221C6.89012 84.0761 7.49459 83.8252 8.12517 83.8242ZM8.12517 86.9556C8.27346 86.9556 8.41842 86.9116 8.54172 86.8293C8.66502 86.7469 8.76112 86.6298 8.81787 86.4928C8.87462 86.3558 8.88947 86.205 8.86054 86.0596C8.83161 85.9141 8.7602 85.7805 8.65534 85.6757C8.55048 85.5708 8.41688 85.4994 8.27144 85.4705C8.126 85.4415 7.97525 85.4564 7.83824 85.5131C7.70124 85.5699 7.58415 85.666 7.50176 85.7893C7.41937 85.9126 7.3754 86.0576 7.3754 86.2058C7.37598 86.4043 7.45523 86.5945 7.59578 86.7346C7.73633 86.8747 7.9267 86.9534 8.12517 86.9534V86.9556Z" fill="white"/>
    <path d="M3.58607 54.7423C5.50983 56.6663 8.04128 57.8636 10.749 58.1303C13.4567 58.3969 16.173 57.7162 18.4351 56.2044L10.0619 64.5758C7.99791 66.6402 6.77552 69.3984 6.63243 72.3141C6.48935 75.2298 7.4358 78.0945 9.28773 80.351C11.1397 82.6076 13.7647 84.0947 16.6523 84.5232C19.5398 84.9516 22.4836 84.2907 24.9109 82.6691L20.5177 87.0615C18.4537 89.1259 17.2313 91.8841 17.0882 94.7998C16.9451 97.7155 17.8916 100.58 19.7435 102.837C21.5955 105.093 24.2205 106.58 27.108 107.009C29.9956 107.437 32.9393 106.776 35.3667 105.155L34.2932 106.228C33.1912 107.318 32.3154 108.615 31.7163 110.044C31.1172 111.473 30.8065 113.007 30.8022 114.557C30.7978 116.107 31.0999 117.642 31.691 119.075C32.2821 120.508 33.1506 121.809 34.2465 122.905C35.3425 124.001 36.6442 124.87 38.0769 125.461C39.5097 126.052 41.0451 126.354 42.595 126.35C44.1449 126.345 45.6786 126.035 47.108 125.436C48.5374 124.837 49.8342 123.961 50.924 122.859L62.0683 111.716C60.4462 114.143 59.785 117.087 60.2133 119.975C60.6415 122.863 62.1287 125.488 64.3854 127.34C66.6421 129.192 69.507 130.139 72.423 129.996C75.3389 129.852 78.0973 128.63 80.1616 126.565L97.0932 109.633C95.4716 112.061 94.8108 115.004 95.2392 117.892C95.6677 120.779 97.1548 123.404 99.4113 125.256C101.668 127.108 104.533 128.055 107.448 127.912C110.364 127.769 113.122 126.546 115.187 124.482L141.544 98.1224C143.608 96.058 144.831 93.2998 144.974 90.3841C145.117 87.4684 144.17 84.6037 142.318 82.3472C140.466 80.0906 137.841 78.6035 134.954 78.175C132.066 77.7466 129.122 78.4074 126.695 80.0291L132.213 74.5112C134.278 72.447 135.501 69.6886 135.644 66.7725C135.788 63.8565 134.841 60.9914 132.989 58.7346C131.137 56.4778 128.511 54.9906 125.623 54.5625C122.735 54.1344 119.791 54.7959 117.364 56.4183L128.508 45.2745C130.572 43.2101 131.794 40.4518 131.937 37.5361C132.08 34.6205 131.134 31.7558 129.282 29.4992C127.43 27.2427 124.805 25.7556 121.917 25.3271C119.03 24.8987 116.086 25.5595 113.659 27.1811L120.756 20.0847C122.953 17.8777 124.185 14.8891 124.182 11.7746C124.179 8.66012 122.94 5.67416 120.738 3.47187C118.535 1.26957 115.549 0.0308026 112.435 0.027351C109.321 0.0238994 106.332 1.25605 104.125 3.45346L88.3187 19.2613C89.9391 16.8342 90.5991 13.8912 90.1705 11.0045C89.7418 8.11779 88.2551 5.49361 85.9993 3.64207C83.7435 1.79053 80.8798 0.843934 77.9649 0.986282C75.05 1.12863 72.2922 2.34976 70.2276 4.41228L48.0387 26.6007C49.6611 24.1734 50.3226 21.2295 49.8945 18.3415C49.4664 15.4535 47.9792 12.828 45.7224 10.9758C43.4656 9.12361 40.6005 8.17716 37.6845 8.32056C34.7685 8.46397 32.01 9.68699 29.9459 11.7517L3.58607 38.1115C2.49404 39.2035 1.62779 40.4998 1.03679 41.9266C0.445788 43.3534 0.141602 44.8826 0.141602 46.4269C0.141602 47.9712 0.445788 49.5004 1.03679 50.9272C1.62779 52.354 2.49404 53.6503 3.58607 54.7423Z" fill="#F5F5F5"/>
    <path d="M144.644 104.864L143.83 105.678C143.678 105.83 143.592 106.037 143.592 106.253C143.592 106.469 143.678 106.677 143.83 106.829C143.983 106.982 144.19 107.068 144.406 107.068C144.622 107.068 144.829 106.982 144.982 106.829L145.796 106.016L146.609 106.829C146.685 106.905 146.775 106.965 146.873 107.006C146.972 107.047 147.078 107.068 147.185 107.068C147.292 107.068 147.398 107.047 147.497 107.006C147.595 106.965 147.685 106.905 147.761 106.829C147.836 106.754 147.896 106.664 147.937 106.565C147.978 106.466 147.999 106.36 147.999 106.253C147.999 106.147 147.978 106.041 147.937 105.942C147.896 105.843 147.836 105.753 147.761 105.678L146.948 104.864L147.761 104.05C147.914 103.898 147.999 103.69 147.999 103.474C147.999 103.258 147.914 103.051 147.761 102.899C147.608 102.746 147.401 102.66 147.185 102.66C146.969 102.66 146.762 102.746 146.609 102.899L145.796 103.712L144.982 102.899C144.829 102.746 144.622 102.66 144.406 102.66C144.19 102.66 143.983 102.746 143.83 102.899C143.678 103.051 143.592 103.258 143.592 103.474C143.592 103.69 143.678 103.898 143.83 104.05L144.644 104.864Z" fill="#FFBCB0"/>
    <path d="M28.3728 122.4L27.559 123.213C27.4809 123.288 27.4184 123.378 27.3754 123.478C27.3324 123.577 27.3097 123.684 27.3086 123.793C27.3075 123.901 27.3281 124.009 27.3691 124.109C27.41 124.209 27.4706 124.3 27.5473 124.377C27.6239 124.454 27.7151 124.514 27.8155 124.555C27.9158 124.596 28.0234 124.617 28.1317 124.615C28.2401 124.614 28.3472 124.592 28.4466 124.549C28.5461 124.506 28.636 124.443 28.711 124.365L29.5243 123.551L30.3381 124.365C30.4908 124.518 30.6979 124.603 30.9138 124.603C31.1298 124.603 31.3369 124.518 31.4896 124.365C31.6423 124.212 31.7281 124.005 31.7281 123.789C31.7281 123.573 31.6423 123.366 31.4896 123.213L30.6763 122.4L31.4896 121.586C31.6423 121.433 31.7281 121.226 31.7281 121.01C31.7281 120.794 31.6423 120.587 31.4896 120.434C31.3369 120.282 31.1298 120.196 30.9138 120.196C30.6979 120.196 30.4908 120.282 30.3381 120.434L29.5243 121.248L28.711 120.434C28.636 120.356 28.5461 120.294 28.4466 120.251C28.3472 120.208 28.2401 120.185 28.1317 120.184C28.0234 120.183 27.9158 120.203 27.8155 120.244C27.7151 120.285 27.6239 120.345 27.5473 120.422C27.4706 120.499 27.41 120.59 27.3691 120.69C27.3281 120.791 27.3075 120.898 27.3086 121.006C27.3097 121.115 27.3324 121.222 27.3754 121.321C27.4184 121.421 27.4809 121.511 27.559 121.586L28.3728 122.4Z" fill="#FFBCB0"/>
    <path d="M7.55519 50.2737L6.74147 51.0874C6.66328 51.1625 6.60086 51.2524 6.55787 51.3519C6.51487 51.4514 6.49216 51.5584 6.49106 51.6668C6.48997 51.7752 6.51052 51.8827 6.5515 51.983C6.59248 52.0834 6.65307 52.1745 6.72972 52.2512C6.80638 52.3278 6.89755 52.3883 6.99791 52.4293C7.09826 52.4702 7.20578 52.4907 7.31416 52.4896C7.42254 52.4885 7.5296 52.4657 7.62908 52.4227C7.72855 52.3796 7.81844 52.3172 7.89347 52.239L8.70499 51.4261L9.51871 52.2398C9.67247 52.3875 9.87796 52.4689 10.0911 52.4668C10.3042 52.4646 10.508 52.379 10.6588 52.2283C10.8095 52.0776 10.8952 51.8739 10.8974 51.6607C10.8997 51.4476 10.8183 51.2421 10.6707 51.0883L9.85699 50.2746L10.6707 49.4608C10.8183 49.307 10.8997 49.1015 10.8974 48.8884C10.8952 48.6752 10.8095 48.4715 10.6588 48.3208C10.508 48.1701 10.3042 48.0845 10.0911 48.0823C9.87796 48.0802 9.67247 48.1617 9.51871 48.3093L8.70499 49.123L7.89171 48.3093C7.81668 48.2311 7.72679 48.1686 7.62731 48.1256C7.52784 48.0825 7.42078 48.0598 7.3124 48.0586C7.20402 48.0575 7.0965 48.078 6.99615 48.119C6.89579 48.1599 6.80462 48.2205 6.72796 48.2971C6.65131 48.3737 6.59071 48.4649 6.54973 48.5652C6.50875 48.6655 6.48821 48.773 6.4893 48.8814C6.49039 48.9898 6.5131 49.0969 6.5561 49.1964C6.5991 49.2959 6.66152 49.3858 6.73971 49.4608L7.55519 50.2737Z" fill="#FFBCB0"/>
    <path d="M105.491 8.45769L104.677 9.27141C104.601 9.34703 104.541 9.43679 104.5 9.53559C104.46 9.63438 104.438 9.74026 104.438 9.8472C104.438 9.95413 104.46 10.06 104.5 10.1588C104.541 10.2576 104.601 10.3474 104.677 10.423C104.753 10.4986 104.842 10.5586 104.941 10.5995C105.04 10.6404 105.146 10.6615 105.253 10.6615C105.36 10.6615 105.466 10.6404 105.564 10.5995C105.663 10.5586 105.753 10.4986 105.829 10.423L106.642 9.60925L107.456 10.423C107.609 10.5757 107.816 10.6615 108.032 10.6615C108.139 10.6615 108.245 10.6404 108.343 10.5995C108.442 10.5586 108.532 10.4986 108.608 10.423C108.683 10.3474 108.743 10.2576 108.784 10.1588C108.825 10.06 108.846 9.95413 108.846 9.8472C108.846 9.74026 108.825 9.63438 108.784 9.53559C108.743 9.43679 108.683 9.34703 108.608 9.27141L107.794 8.45769L108.608 7.64397C108.76 7.49126 108.846 7.28415 108.846 7.06819C108.846 6.85223 108.76 6.64511 108.608 6.4924C108.532 6.41679 108.442 6.35681 108.343 6.31589C108.245 6.27497 108.139 6.25391 108.032 6.25391C107.816 6.25391 107.609 6.3397 107.456 6.4924L106.642 7.30613L105.829 6.4924C105.753 6.41679 105.663 6.35681 105.564 6.31589C105.466 6.27497 105.36 6.25391 105.253 6.25391C105.146 6.25391 105.04 6.27497 104.941 6.31589C104.842 6.35681 104.753 6.41679 104.677 6.4924C104.601 6.56802 104.541 6.65778 104.5 6.75657C104.46 6.85537 104.438 6.96125 104.438 7.06819C104.438 7.17512 104.46 7.281 104.5 7.3798C104.541 7.47859 104.601 7.56835 104.677 7.64397L105.491 8.45769Z" fill="#FFBCB0"/>
    <path d="M90.5928 123.535C91.0634 123.535 91.5233 123.675 91.9145 123.936C92.3058 124.197 92.6107 124.569 92.7907 125.004C92.9708 125.438 93.0179 125.917 92.9261 126.378C92.8343 126.84 92.6077 127.264 92.275 127.596C91.9423 127.929 91.5184 128.156 91.057 128.247C90.5955 128.339 90.1172 128.292 89.6825 128.112C89.2478 127.932 88.8762 127.627 88.6148 127.236C88.3534 126.845 88.2139 126.385 88.2139 125.914C88.2146 125.283 88.4654 124.679 88.9114 124.233C89.3574 123.787 89.9621 123.536 90.5928 123.535ZM90.5928 126.667C90.7411 126.667 90.8861 126.623 91.0094 126.54C91.1327 126.458 91.2288 126.341 91.2856 126.204C91.3423 126.067 91.3571 125.916 91.3282 125.771C91.2993 125.625 91.2279 125.491 91.123 125.387C91.0182 125.282 90.8846 125.21 90.7391 125.181C90.5937 125.152 90.4429 125.167 90.3059 125.224C90.1689 125.281 90.0518 125.377 89.9694 125.5C89.887 125.624 89.8431 125.768 89.8431 125.917C89.8437 126.115 89.9229 126.305 90.0635 126.446C90.204 126.586 90.3944 126.664 90.5928 126.664V126.667Z" fill="#FFBCB0"/>
    <path d="M135.43 47.7305C135.9 47.7305 136.36 47.87 136.751 48.1314C137.143 48.3928 137.448 48.7643 137.628 49.1991C137.808 49.6338 137.855 50.1121 137.763 50.5736C137.671 51.035 137.445 51.4589 137.112 51.7916C136.779 52.1244 136.355 52.3509 135.894 52.4427C135.432 52.5345 134.954 52.4874 134.519 52.3073C134.085 52.1273 133.713 51.8224 133.452 51.4311C133.19 51.0399 133.051 50.58 133.051 50.1095C133.051 49.4787 133.302 48.874 133.748 48.428C134.194 47.982 134.799 47.7312 135.43 47.7305ZM135.43 50.8597C135.578 50.8597 135.723 50.8157 135.846 50.7333C135.97 50.6509 136.066 50.5338 136.122 50.3968C136.179 50.2598 136.194 50.1091 136.165 49.9636C136.136 49.8182 136.065 49.6846 135.96 49.5797C135.855 49.4749 135.721 49.4035 135.576 49.3745C135.431 49.3456 135.28 49.3604 135.143 49.4172C135.006 49.4739 134.889 49.57 134.806 49.6933C134.724 49.8166 134.68 49.9616 134.68 50.1099C134.68 50.3087 134.759 50.4995 134.9 50.6401C135.04 50.7807 135.231 50.8597 135.43 50.8597Z" fill="#FFBCB0"/>
    <path d="M35.8399 9.55078C36.3104 9.55078 36.7704 9.69031 37.1616 9.95171C37.5528 10.2131 37.8578 10.5847 38.0378 11.0194C38.2179 11.4541 38.265 11.9324 38.1732 12.3939C38.0814 12.8554 37.8548 13.2793 37.5221 13.612C37.1894 13.9447 36.7655 14.1712 36.304 14.263C35.8426 14.3548 35.3642 14.3077 34.9295 14.1277C34.4948 13.9476 34.1233 13.6427 33.8619 13.2515C33.6005 12.8602 33.4609 12.4003 33.4609 11.9298C33.4616 11.299 33.7125 10.6943 34.1585 10.2483C34.6045 9.80235 35.2092 9.55148 35.8399 9.55078ZM35.8399 12.68C35.9882 12.68 36.1332 12.636 36.2565 12.5536C36.3798 12.4712 36.4759 12.3541 36.5326 12.2171C36.5894 12.0801 36.6042 11.9294 36.5753 11.7839C36.5464 11.6385 36.4749 11.5049 36.3701 11.4C36.2652 11.2952 36.1316 11.2238 35.9862 11.1948C35.8408 11.1659 35.69 11.1808 35.553 11.2375C35.416 11.2943 35.2989 11.3904 35.2165 11.5137C35.1341 11.637 35.0902 11.7819 35.0902 11.9302C35.0902 12.1291 35.1691 12.3198 35.3098 12.4604C35.4504 12.601 35.6411 12.68 35.8399 12.68Z" fill="#FFBCB0"/>
    <path d="M8.12517 83.8242C8.59573 83.824 9.05576 83.9634 9.4471 84.2247C9.83844 84.486 10.1435 84.8575 10.3237 85.2922C10.5039 85.7269 10.5511 86.2052 10.4594 86.6668C10.3677 87.1283 10.1412 87.5523 9.80856 87.8851C9.47589 88.2179 9.052 88.4445 8.59049 88.5364C8.12899 88.6283 7.65061 88.5812 7.21586 88.4012C6.78111 88.2211 6.40951 87.9162 6.14806 87.525C5.88662 87.1337 5.74707 86.6738 5.74707 86.2032C5.74777 85.5726 5.99852 84.9681 6.44432 84.5221C6.89012 84.0761 7.49459 83.8252 8.12517 83.8242ZM8.12517 86.9556C8.27346 86.9556 8.41842 86.9116 8.54172 86.8293C8.66502 86.7469 8.76112 86.6298 8.81787 86.4928C8.87462 86.3558 8.88947 86.205 8.86054 86.0596C8.83161 85.9141 8.7602 85.7805 8.65534 85.6757C8.55048 85.5708 8.41688 85.4994 8.27144 85.4705C8.126 85.4415 7.97525 85.4564 7.83824 85.5131C7.70124 85.5699 7.58415 85.666 7.50176 85.7893C7.41937 85.9126 7.3754 86.0576 7.3754 86.2058C7.37598 86.4043 7.45523 86.5945 7.59578 86.7346C7.73633 86.8747 7.9267 86.9534 8.12517 86.9534V86.9556Z" fill="#FFBCB0"/>
    <path d="M121.526 92.1248C117.604 93.6605 113.246 93.6605 109.324 92.1248C108.763 91.9041 108.306 91.4795 108.045 90.9363C107.784 90.393 107.738 89.7712 107.916 89.1954L111.802 76.758L112.067 75.9094L112.342 75.0273C112.507 75.2097 112.686 75.3776 112.879 75.5292C112.924 75.5628 112.968 75.5958 113.012 75.6276C113.715 76.1372 114.558 76.4198 115.426 76.4373C116.295 76.4549 117.148 76.2067 117.872 75.7259L117.952 75.6708C118.167 75.5209 118.368 75.3514 118.551 75.1645L118.821 76.0281L119.083 76.866L122.935 89.1958C123.113 89.7717 123.067 90.3935 122.805 90.9366C122.544 91.4798 122.087 91.9042 121.526 92.1248Z" fill="#DBDBDB"/>
    <path d="M117.454 58.4727V66.5993C116.912 66.4104 116.346 66.3012 115.772 66.2751C115.69 66.2712 115.608 66.269 115.526 66.269H115.512C115.399 66.269 115.285 66.2721 115.172 66.2782H115.167L115.075 66.2844C114.562 66.3215 114.055 66.4264 113.569 66.5962V60.0092L117.454 58.4727Z" fill="#DBDBDB"/>
    <path d="M117.454 56.7196L113.569 58.2562L112.753 58.5786V68.9131C112.785 68.8862 112.817 68.8593 112.85 68.8333C113.539 68.2826 114.381 67.9591 115.262 67.9071C115.306 67.9044 115.355 67.9027 115.401 67.9022H115.426C115.454 67.9022 115.483 67.9022 115.511 67.9022H115.522H115.593C115.831 67.9064 116.069 67.9308 116.303 67.975C116.629 68.0359 116.947 68.1356 117.25 68.2718C117.319 68.3012 117.387 68.3337 117.454 68.3693C117.708 68.4998 117.949 68.6555 118.172 68.8341C118.205 68.8602 118.238 68.8871 118.269 68.914V56.3945L117.454 56.7196ZM117.454 66.5989C116.912 66.41 116.345 66.3008 115.772 66.2748C115.69 66.2708 115.608 66.2686 115.526 66.2686H115.512C115.398 66.2686 115.284 66.2717 115.171 66.2779H115.167L115.075 66.284C114.947 66.2934 114.821 66.3068 114.695 66.3242C114.518 66.348 114.348 66.3802 114.178 66.4194C113.972 66.4671 113.769 66.526 113.569 66.5959V60.0089L117.454 58.4723V66.5989Z" fill="#DBDBDB"/>
    <path d="M120.569 71.6248C120.446 70.4588 119.922 69.3717 119.086 68.5498C118.958 68.4232 118.823 68.3033 118.683 68.1908C118.55 68.085 118.413 67.9862 118.27 67.8944C118.012 67.7276 117.739 67.5847 117.454 67.4675L117.38 67.4375C117.237 67.3808 117.093 67.3308 116.945 67.2876C116.483 67.152 116.004 67.0828 115.523 67.082H115.512C115.414 67.082 115.315 67.0847 115.215 67.09C115.079 67.0979 114.944 67.1111 114.811 67.1297C114.772 67.135 114.734 67.1407 114.696 67.1469C114.421 67.1911 114.151 67.2581 113.888 67.3471C113.78 67.3833 113.674 67.4231 113.57 67.4666C113.396 67.5382 113.228 67.6197 113.064 67.7105C112.958 67.7683 112.855 67.8305 112.755 67.8962C112.613 67.9879 112.476 68.087 112.342 68.1935C111.309 69.015 110.636 70.2066 110.467 71.5157C110.297 72.8248 110.644 74.1484 111.434 75.206C111.624 75.4594 111.836 75.6946 112.07 75.9086C112.168 76.0001 112.271 76.0883 112.378 76.1732C112.501 76.27 112.628 76.3602 112.758 76.444C113.424 76.8777 114.184 77.1465 114.974 77.2282C115.154 77.2468 115.334 77.2561 115.514 77.256C116.433 77.2577 117.336 77.0078 118.124 76.5336C118.225 76.4733 118.324 76.4092 118.421 76.3413C118.56 76.2443 118.694 76.1404 118.822 76.0299C119.449 75.4927 119.936 74.8108 120.24 74.0433C120.544 73.2758 120.657 72.4457 120.569 71.6248ZM119.161 74.3786C118.989 74.6622 118.784 74.9247 118.551 75.161C118.367 75.3479 118.167 75.5174 117.952 75.6674L117.872 75.7225C117.165 76.1919 116.335 76.4398 115.487 76.4347C114.639 76.4296 113.811 76.1717 113.11 75.6938C113.077 75.6709 113.044 75.6497 113.011 75.6241C112.967 75.5924 112.923 75.5593 112.879 75.5258C112.369 75.1268 111.956 74.6169 111.672 74.0347C111.388 73.4524 111.241 72.8132 111.241 72.1655C111.24 71.3369 111.481 70.526 111.936 69.8333C112.162 69.4868 112.437 69.1749 112.752 68.9071C112.784 68.8802 112.816 68.8533 112.849 68.8272C113.538 68.2766 114.38 67.953 115.261 67.9011C115.305 67.8984 115.354 67.8966 115.4 67.8962H115.425C115.453 67.8962 115.482 67.8962 115.51 67.8962H115.521H115.592C115.83 67.9004 116.068 67.9248 116.302 67.969C116.628 68.0299 116.946 68.1295 117.249 68.2658C117.318 68.2952 117.386 68.3277 117.453 68.3633C117.707 68.4938 117.948 68.6495 118.171 68.8281C118.204 68.8541 118.237 68.881 118.268 68.9079C118.562 69.1567 118.821 69.4441 119.038 69.7622C119.054 69.7852 119.069 69.8086 119.084 69.8319C119.525 70.5053 119.766 71.2897 119.779 72.0942C119.792 72.8988 119.577 73.6906 119.159 74.3782L119.161 74.3786Z" fill="#FFBCB0"/>
    <path d="M119.781 72.1638C119.782 72.9446 119.567 73.7104 119.16 74.377C118.988 74.6605 118.783 74.9231 118.55 75.1594C118.366 75.3463 118.166 75.5158 117.951 75.6657L117.871 75.7208C117.147 76.2016 116.294 76.4498 115.425 76.4322C114.557 76.4146 113.714 76.1321 113.011 75.6225C112.966 75.5907 112.922 75.5576 112.878 75.5241C112.368 75.1252 111.955 74.6152 111.672 74.033C111.388 73.4508 111.24 72.8115 111.24 72.1638C111.239 71.3352 111.481 70.5244 111.935 69.8316C112.161 69.4852 112.436 69.1732 112.751 68.9054C112.783 68.8785 112.816 68.8516 112.848 68.8256C113.537 68.275 114.38 67.9514 115.26 67.8994C115.304 67.8967 115.353 67.895 115.399 67.8945H115.424C115.452 67.8945 115.481 67.8945 115.51 67.8945H115.521H115.591C115.829 67.8987 116.067 67.9231 116.301 67.9673C116.628 68.0282 116.946 68.1279 117.249 68.2641C117.317 68.2935 117.385 68.326 117.452 68.3616C117.706 68.4921 117.947 68.6479 118.171 68.8265C118.203 68.8525 118.236 68.8794 118.268 68.9063C118.741 69.307 119.121 69.8059 119.382 70.3683C119.643 70.9308 119.778 71.5433 119.779 72.1634L119.781 72.1638Z" fill="#FFBCB0"/>
    <path d="M71.7108 98.19V99.0059C60.8872 99.0059 50.4671 96.8766 42.3674 93.0117C41.788 92.7318 41.2991 92.2944 40.9568 91.7496C40.6144 91.2047 40.4324 90.5745 40.4316 89.931V83.4336L41.5986 83.9889C49.9692 87.9741 60.6623 90.1683 71.7073 90.1683C82.7523 90.1683 93.4458 87.9741 101.816 83.9889L102.983 83.4336V89.9319C102.982 90.5753 102.8 91.2055 102.458 91.7504C102.116 92.2952 101.627 92.7326 101.048 93.0126C92.9466 96.8779 82.5283 99.0068 71.7117 99.0068L71.7108 98.19Z" fill="#FEEEEB"/>
    <path d="M71.7073 86.9409C60.8859 86.9409 50.4662 84.812 42.3674 80.9472C41.788 80.6673 41.2991 80.2299 40.9568 79.685C40.6144 79.1402 40.4324 78.51 40.4316 77.8665V66.6133L68.3011 77.6367C70.4889 78.5059 72.9261 78.5059 75.1139 77.6367L102.983 66.6133V77.8665C102.982 78.5099 102.8 79.1401 102.458 79.6849C102.116 80.2298 101.627 80.6672 101.048 80.9472C92.9466 84.8125 82.5283 86.9409 71.7112 86.9409H71.7073Z" fill="#FFBCB0"/>
    <path d="M119.756 52.0582L74.6733 34.2269C74.5537 34.1795 74.4334 34.1354 74.3126 34.0946C72.4996 33.4729 70.5241 33.5198 68.7426 34.2269L23.6584 52.0582C23.1943 52.2407 22.7958 52.5588 22.515 52.971C22.2342 53.3831 22.084 53.8703 22.084 54.3691C22.084 54.8678 22.2342 55.355 22.515 55.7672C22.7958 56.1794 23.1943 56.4974 23.6584 56.6799L68.7409 74.5113C70.6457 75.2672 72.7672 75.2672 74.672 74.5113L111.937 59.7716L112.753 59.4488L113.569 59.1264L117.454 57.5898L119.085 56.9441L119.755 56.6795C120.197 56.5067 120.58 56.2104 120.857 55.8259C121.135 55.4414 121.297 54.985 121.322 54.5113C121.325 54.4643 121.326 54.4166 121.326 54.3684C121.328 53.8699 121.179 53.3825 120.899 52.9701C120.619 52.5578 120.22 52.2399 119.756 52.0582ZM119.456 55.9209L119.087 56.0669L117.455 56.7126L113.57 58.2491L112.754 58.5715L111.938 58.8944L74.373 73.7531C72.661 74.4329 70.7541 74.4329 69.0421 73.7531L24.0999 55.9769L23.9601 55.9218C22.5532 55.3656 22.5532 53.3743 23.9601 52.8177L69.0426 34.9863C70.7545 34.3066 72.6615 34.3066 74.3734 34.9863L119.456 52.8177C119.692 52.9077 119.904 53.0512 120.075 53.2371C120.246 53.4229 120.372 53.6459 120.442 53.8886C120.666 54.6577 120.338 55.572 119.455 55.9209H119.456Z" fill="white"/>
    <path d="M119.455 55.9257L119.086 56.0717L117.454 56.7174L113.57 58.254L112.754 58.5764L111.938 58.8992L74.3737 73.758C72.6618 74.4377 70.7548 74.4377 69.0428 73.758L23.9595 55.9257C22.5526 55.3696 22.5526 53.3783 23.9595 52.8217L69.042 34.9903C70.7539 34.3105 72.6609 34.3105 74.3728 34.9903L119.455 52.8217C120.862 53.3783 120.862 55.3696 119.455 55.9257Z" fill="white"/>
    <g style="mix-blend-mode:multiply">
      <path d="M124.839 90.0746L120.877 77.3942C121.449 76.8036 121.891 76.0999 122.175 75.3282C122.459 74.5565 122.579 73.734 122.526 72.9133C122.473 72.0927 122.25 71.2922 121.869 70.5631C121.489 69.8341 120.96 69.1927 120.317 68.6801C120.283 68.6527 120.248 68.625 120.212 68.5985V58.9507L121.183 58.5674C121.755 58.3412 122.252 57.9597 122.619 57.4659C122.985 56.9722 123.207 56.3858 123.258 55.7729C123.31 55.16 123.189 54.545 122.909 53.9971C122.63 53.4492 122.203 52.9903 121.677 52.672C121.519 52.5775 121.354 52.4961 121.183 52.4285L76.0984 34.5967C74.0009 33.7646 71.6649 33.7646 69.5674 34.5967L24.4845 52.4285C23.8675 52.6698 23.338 53.092 22.9655 53.6398C22.593 54.1876 22.395 54.8353 22.3975 55.4978C22.3975 55.5255 22.3975 55.5533 22.3975 55.5811C22.4115 56.2292 22.6171 56.8587 22.9884 57.3901C23.3596 57.9216 23.8799 58.3312 24.4836 58.5674L69.5656 76.3988C71.431 77.1394 73.4928 77.2239 75.4125 76.6383C75.6428 76.568 75.8708 76.4883 76.0966 76.3992L103.797 65.4428L111.936 62.2232L112.752 61.9004L113.06 61.7778V68.5972C113.025 68.6241 112.99 68.6514 112.955 68.6792C112.885 68.7354 112.817 68.7926 112.75 68.8508C112.45 69.1134 112.176 69.4057 111.934 69.7231C111.153 70.7484 110.731 72.0025 110.733 73.2916C110.733 73.5423 110.749 73.7927 110.781 74.0414C110.854 74.6268 111.017 75.1974 111.263 75.7337C111.291 75.7945 111.32 75.8551 111.351 75.9154C111.487 76.1871 111.643 76.4478 111.819 76.6952C111.859 76.7525 111.901 76.8085 111.943 76.8641C112.046 76.9987 112.154 77.1287 112.267 77.254L108.262 90.0729C108.16 90.3966 108.112 90.7344 108.118 91.0736C108.128 91.6317 108.283 92.1777 108.567 92.6578C108.929 93.2721 109.487 93.7469 110.152 94.0061C111.242 94.4326 112.371 94.7492 113.524 94.9512C113.84 95.0068 114.157 95.0534 114.476 95.091C117.346 95.4319 120.256 95.0594 122.947 94.0065C123.7 93.7103 124.313 93.1406 124.664 92.4115C125.015 91.6824 125.077 90.8478 124.839 90.0746ZM122.355 92.4862C119.052 93.7796 115.412 93.9324 112.012 92.9202C111.586 92.7938 111.164 92.6488 110.746 92.4854C110.377 92.3406 110.077 92.0617 109.905 91.7045C109.733 91.3473 109.703 90.9384 109.82 90.5598L113.63 78.3672C114.515 78.8935 115.522 79.1782 116.551 79.1929C117.581 79.2076 118.596 78.9518 119.496 78.4509L123.037 89.7857L123.279 90.5593C123.396 90.9378 123.366 91.3466 123.195 91.7038C123.024 92.0611 122.724 92.3406 122.355 92.4862ZM114.695 61.1312L117.454 60.0401L118.27 59.7172L118.578 59.5946V67.7191C118.476 67.6833 118.372 67.6502 118.27 67.6207C118.11 67.5742 117.949 67.535 117.787 67.5029C117.676 67.4809 117.565 67.4619 117.454 67.446L117.379 67.4363C117.219 67.4155 117.059 67.4017 116.898 67.3949C116.816 67.3909 116.734 67.3887 116.652 67.3887H116.638C116.524 67.3887 116.41 67.3918 116.297 67.398H116.293L116.201 67.4042C115.687 67.4413 115.181 67.5461 114.695 67.716V61.1312ZM113.879 70.0372C113.911 70.0103 113.943 69.9834 113.976 69.9573C114.665 69.4067 115.507 69.0831 116.388 69.0312C116.434 69.0285 116.481 69.0267 116.527 69.0263H116.552C116.58 69.0263 116.609 69.0263 116.637 69.0263H116.648H116.719C116.957 69.0305 117.195 69.0549 117.429 69.0991C117.755 69.16 118.073 69.2596 118.376 69.3959C118.445 69.4253 118.513 69.4578 118.58 69.4934C118.738 69.5746 118.892 69.6658 119.039 69.7664C119.055 69.777 119.07 69.788 119.085 69.799C119.158 69.8497 119.229 69.9031 119.298 69.9582C119.331 69.9842 119.364 70.0112 119.395 70.0381C119.711 70.3057 119.986 70.6177 120.211 70.9642C120.737 71.7671 120.976 72.7238 120.889 73.6793C120.803 74.6349 120.397 75.5334 119.737 76.2294C119.717 76.2509 119.697 76.2721 119.676 76.2929C119.492 76.4798 119.292 76.6493 119.077 76.7992L119.063 76.8089C119.041 76.8244 119.019 76.8394 118.997 76.8531C118.273 77.3346 117.42 77.5833 116.551 77.5657C115.682 77.5481 114.84 77.2651 114.137 76.7547C114.092 76.7229 114.048 76.6899 114.004 76.6563C113.811 76.5047 113.631 76.3368 113.467 76.1544C113.337 76.0108 113.217 75.8585 113.108 75.6984C113.023 75.575 112.945 75.447 112.874 75.3151C112.511 74.64 112.337 73.8795 112.37 73.1138C112.403 72.348 112.642 71.6053 113.061 70.9638C113.288 70.6171 113.563 70.305 113.879 70.0372ZM120.583 57.052L120.214 57.198L119.088 57.6434L118.582 57.8437L118.273 57.9663L117.457 58.2891L114.698 59.3803L113.882 59.7027L113.574 59.8253L113.068 60.0255L112.759 60.1481L111.943 60.471L75.5043 74.8842C73.8825 75.5281 72.0824 75.5627 70.4371 74.9817C70.3489 74.9523 70.2607 74.9195 70.1725 74.8833L25.0848 57.0498C24.8487 56.9598 24.6368 56.8162 24.4656 56.6304C24.2945 56.4446 24.1689 56.2216 24.0986 55.9789C23.8732 55.2093 24.2018 54.295 25.0848 53.9457L70.1672 36.1144C71.8792 35.4346 73.7862 35.4346 75.4981 36.1144L120.44 53.8906L120.58 53.9457C120.877 54.0599 121.134 54.2575 121.322 54.5147C121.915 55.3341 121.667 56.6202 120.581 57.0498L120.583 57.052Z" fill="#DBDBDB"/>
    </g>
    <g style="mix-blend-mode:multiply">
      <path d="M103.798 83.7976L102.982 84.1862L102.591 84.3723C94.3279 88.3064 83.7587 90.4728 72.8332 90.4728C65.975 90.4728 59.2579 89.6194 53.1627 88.0104C49.5462 87.0569 46.1502 85.837 43.0743 84.3723L40.7412 83.2617V91.051C40.7412 91.1586 40.7452 91.2662 40.754 91.3725C40.8113 92.1109 41.0607 92.8216 41.4773 93.4339C41.8949 94.051 42.469 94.546 43.1409 94.8682C45.8754 96.1728 48.8542 97.282 52.0412 98.1835C53.7154 98.6566 55.4451 99.0724 57.2305 99.4308C57.9167 99.5684 58.6077 99.6966 59.3034 99.8154H86.3662C87.061 99.6978 87.7519 99.5697 88.4391 99.4312C90.222 99.074 91.9517 98.6581 93.6279 98.1835C96.8136 97.282 99.7924 96.1728 102.526 94.8682C103.245 94.5215 103.851 93.9796 104.275 93.3045C104.699 92.6294 104.925 91.8484 104.927 91.051V83.2617L103.798 83.7976ZM59.4441 98.1835C57.3981 97.8307 55.3904 97.3941 53.4397 96.8741C50.0357 95.9677 46.8051 94.8082 43.8444 93.3956C43.404 93.182 43.0326 92.8489 42.7725 92.4343C42.5124 92.0198 42.3742 91.5404 42.3735 91.051V85.8467C50.8517 89.8827 61.6673 92.1055 72.8332 92.1055C83.5104 92.1055 93.867 90.0727 102.167 86.3658C102.441 86.2435 102.713 86.1191 102.982 85.9927C103.086 85.9446 103.19 85.8956 103.291 85.8467V91.051C103.291 91.5405 103.153 92.02 102.892 92.4347C102.632 92.8493 102.26 93.1823 101.82 93.3956C97.1629 95.6175 91.8395 97.2137 86.225 98.1835C81.8781 98.9333 77.357 99.3099 72.8354 99.3099H72.8315C68.3125 99.3095 63.791 98.9342 59.4441 98.1835Z" fill="#DBDBDB"/>
    </g>
    <g style="mix-blend-mode:multiply">
      <path d="M103.798 66.9806L102.982 67.3035L102.692 67.4181L75.939 78.0001C74.0826 78.738 72.024 78.7907 70.1323 78.1487C69.9961 78.1028 69.8607 78.0533 69.7261 78.0001L42.9729 67.4181L40.7412 66.536V78.9884C40.7412 79.0961 40.7452 79.2037 40.754 79.31C40.8113 80.0484 41.0607 80.759 41.4773 81.3714C41.8949 81.9885 42.469 82.4835 43.1409 82.8057C47.3114 84.7957 52.05 86.3309 57.2305 87.3683C62.2319 88.3707 67.4812 88.8788 72.8323 88.8793H72.8368C78.1875 88.8793 83.4359 88.3707 88.4369 87.3687C92.4212 86.57 96.1467 85.4766 99.5511 84.105C100.571 83.696 101.561 83.2621 102.522 82.8035C102.728 82.705 102.926 82.5898 103.113 82.459C103.67 82.0672 104.126 81.5473 104.44 80.943C104.755 80.3386 104.92 79.6676 104.921 78.9862V66.5352L103.798 66.9806ZM102.982 69.0584L103.291 68.9358V78.9884C103.29 79.478 103.152 79.9575 102.892 80.3721C102.632 80.7868 102.26 81.1198 101.819 81.333C93.5569 85.2755 83.1964 87.2474 72.835 87.2474H72.831C66.1805 87.2474 59.5287 86.4346 53.4326 84.8106C50.0304 83.9043 46.8016 82.7452 43.8422 81.333C43.4018 81.1195 43.0303 80.7865 42.7702 80.3719C42.5101 79.9573 42.3719 79.4779 42.3713 78.9884V68.9358L69.1245 79.5177C71.5049 80.4633 74.1567 80.4633 76.5371 79.5177L102.164 69.3816L102.982 69.0584Z" fill="#DBDBDB"/>
    </g>
    <path d="M123.713 88.9462L119.751 76.2658L119.467 75.3563L119.161 74.3768C118.988 74.6603 118.783 74.9229 118.55 75.1592C118.367 75.3461 118.166 75.5156 117.951 75.6655L117.871 75.7206L118.123 76.5264L118.372 77.3243L122.155 89.4331C122.272 89.8118 122.242 90.2208 122.07 90.578C121.899 90.9352 121.598 91.2144 121.229 91.3596C117.498 92.8209 113.352 92.8209 109.62 91.3596C109.251 91.2147 108.951 90.9357 108.779 90.5786C108.607 90.2214 108.577 89.8126 108.694 89.434L112.504 77.2413L112.755 76.4378L113.01 75.6232C112.965 75.5914 112.921 75.5583 112.877 75.5248C112.413 75.1597 112.028 74.7032 111.747 74.1836L111.429 75.2015L111.14 76.1277L107.134 88.9466C106.895 89.7197 106.957 90.5546 107.308 91.284C107.658 92.0134 108.271 92.5834 109.024 92.8798C113.138 94.4897 117.707 94.4897 121.82 92.8798C122.573 92.5839 123.187 92.0141 123.539 91.2846C123.89 90.5551 123.952 89.7198 123.713 88.9462Z" fill="#5C5B5B"/>
    <path d="M112.753 58.5711L111.938 58.8939V69.8318C112.163 69.4854 112.438 69.1734 112.753 68.9056C112.785 68.8787 112.818 68.8518 112.85 68.8258C113.074 68.647 113.315 68.4913 113.569 68.3609V58.2487L112.753 58.5711ZM115.425 67.8938C115.453 67.8938 115.482 67.8938 115.511 67.8938H115.425ZM115.425 67.8938C115.453 67.8938 115.482 67.8938 115.511 67.8938H115.425ZM117.454 56.7121V68.3609C117.709 68.4914 117.949 68.6472 118.173 68.8258C118.206 68.8518 118.238 68.8787 118.27 68.9056C118.564 69.1544 118.822 69.4418 119.039 69.7599C119.055 69.7828 119.07 69.8062 119.086 69.8296V56.0664L117.454 56.7121ZM115.425 67.8938C115.453 67.8938 115.482 67.8938 115.511 67.8938H115.425ZM115.426 67.8938C115.454 67.8938 115.483 67.8938 115.511 67.8938H115.426Z" fill="#5C5B5B"/>
    <path d="M120.213 68.5966C119.917 68.2084 119.574 67.8581 119.193 67.5535C119.158 67.5257 119.123 67.498 119.087 67.4711C118.925 67.347 118.756 67.2318 118.581 67.1257C118.48 67.064 118.376 67.0053 118.272 66.9493C117.767 66.6814 117.225 66.4882 116.663 66.376C116.37 66.3172 116.073 66.2811 115.775 66.2679C115.693 66.2639 115.611 66.2617 115.529 66.2617H115.515C115.401 66.2617 115.287 66.2648 115.174 66.271H115.17L115.077 66.2772C114.95 66.2866 114.824 66.2999 114.698 66.3173C114.521 66.3411 114.351 66.3733 114.181 66.4126C113.975 66.4602 113.771 66.5191 113.572 66.589C113.4 66.6478 113.231 66.7156 113.066 66.7923C112.961 66.8399 112.858 66.8911 112.757 66.9453C112.471 67.0969 112.198 67.2719 111.941 67.4684C111.906 67.4953 111.871 67.5227 111.836 67.5504C110.781 68.3912 110.046 69.5683 109.754 70.8854C109.462 72.2025 109.63 73.5799 110.231 74.788C110.611 75.5468 111.148 76.2161 111.806 76.751L111.876 76.8066L111.949 76.8626C112.128 76.9992 112.315 77.1251 112.509 77.2397C113.483 77.818 114.603 78.1031 115.735 78.061C116.866 78.0188 117.962 77.6511 118.89 77.002C118.956 76.9558 119.022 76.9082 119.086 76.8591C119.324 76.6784 119.547 76.4798 119.755 76.265C120.735 75.2527 121.321 73.9226 121.406 72.5157C121.491 71.1087 121.069 69.718 120.216 68.5953L120.213 68.5966ZM113.112 75.6925C113.079 75.6696 113.046 75.6484 113.013 75.6229C112.969 75.5911 112.925 75.558 112.881 75.5245C112.37 75.1255 111.958 74.6156 111.674 74.0334C111.39 73.4511 111.243 72.8119 111.243 72.1642C111.241 71.3356 111.483 70.5248 111.938 69.832C112.164 69.4855 112.438 69.1736 112.754 68.9058C112.785 68.8789 112.818 68.852 112.851 68.8259C113.539 68.2753 114.382 67.9517 115.262 67.8998C115.306 67.8971 115.355 67.8953 115.402 67.8949H115.426C115.455 67.8949 115.483 67.8949 115.512 67.8949H115.523H115.593C115.832 67.8991 116.069 67.9235 116.304 67.9677C116.63 68.0286 116.948 68.1282 117.251 68.2645C117.32 68.2939 117.388 68.3264 117.454 68.362C117.709 68.4925 117.95 68.6482 118.173 68.8268C118.206 68.8529 118.238 68.8797 118.27 68.9067C118.564 69.1554 118.823 69.4428 119.039 69.761C119.055 69.7839 119.071 69.8073 119.086 69.8306C119.527 70.504 119.767 71.2884 119.781 72.0929C119.794 72.8975 119.579 73.6893 119.161 74.3769C118.989 74.6604 118.784 74.923 118.551 75.1593C118.367 75.3462 118.167 75.5157 117.952 75.6656L117.871 75.7208C117.165 76.1901 116.335 76.4381 115.487 76.433C114.638 76.4279 113.811 76.1699 113.11 75.6921L113.112 75.6925ZM115.427 67.8953C115.455 67.8953 115.484 67.8953 115.513 67.8953H115.427ZM115.427 67.8953C115.455 67.8953 115.484 67.8953 115.513 67.8953H115.427Z" fill="#5C5B5B"/>
    <path d="M103.116 82.4618L101.465 83.2473C100.841 83.5445 100.204 83.8313 99.5538 84.1077C91.6031 87.4958 81.808 89.3473 71.7068 89.3473C60.7804 89.3473 50.2122 87.1809 41.9488 83.2473L39.6152 82.1367V89.9269C39.6166 90.6192 39.787 91.3006 40.1116 91.9121C40.4362 92.5236 40.9052 93.0467 41.4778 93.4358C41.6489 93.5522 41.8286 93.6554 42.0154 93.7445C46.0289 95.6586 50.565 97.1516 55.5139 98.1858C55.71 98.2273 55.907 98.2677 56.1049 98.3071C61.0543 99.299 66.2463 99.8067 71.5414 99.8177H71.8801C77.1726 99.8075 82.3641 99.299 87.3131 98.3075C87.5115 98.2679 87.7091 98.2273 87.9058 98.1858C92.8517 97.1516 97.3883 95.6582 101.402 93.7445C102.12 93.3978 102.726 92.8559 103.15 92.1808C103.575 91.5057 103.801 90.7247 103.802 89.9273V82.1367L103.116 82.4618ZM42.7184 92.2705C42.6999 92.2617 42.6809 92.2525 42.6628 92.2428C42.2368 92.0239 41.8793 91.6919 41.6296 91.2832C41.3798 90.8745 41.2475 90.4049 41.2471 89.926V84.7225C49.7257 88.7585 60.5409 90.9809 71.7068 90.9809C82.8727 90.9809 93.6883 88.7585 102.167 84.7225V89.9269C102.166 90.4163 102.028 90.8958 101.768 91.3105C101.508 91.7251 101.136 92.0582 100.696 92.2714C92.4759 96.1932 82.1811 98.1651 71.8731 98.1854H71.5449C61.2373 98.1638 50.9372 96.1919 42.7184 92.2705Z" fill="#5C5B5B"/>
    <path d="M101.567 66.2931L75.4132 76.6373L74.8121 76.8751C72.8172 77.6681 70.5945 77.6681 68.5996 76.8751L41.8464 66.2936L39.6143 65.4115V77.8648C39.6157 78.5571 39.7861 79.2386 40.1106 79.8501C40.4352 80.4616 40.9042 80.9846 41.4768 81.3737C41.6479 81.4901 41.8276 81.5933 42.0144 81.6824C46.1845 83.6724 50.9235 85.2072 56.104 86.245C61.1049 87.2471 66.3542 87.7556 71.7058 87.7556H71.7098C77.061 87.7556 82.3094 87.2475 87.3103 86.245C92.4869 85.2077 97.2267 83.6724 101.397 81.6824C102.115 81.3357 102.721 80.7938 103.146 80.1187C103.57 79.4436 103.796 78.6627 103.797 77.8652V65.4102L101.567 66.2931ZM42.7188 80.2076C42.6998 80.1988 42.6813 80.1895 42.6627 80.1798C42.2369 79.9609 41.8795 79.629 41.6298 79.2204C41.3802 78.8118 41.2479 78.3423 41.2474 77.8634V67.8108L68.0011 78.3922C70.3815 79.3378 73.0333 79.3378 75.4137 78.3922L102.167 67.8108V77.8634C102.167 78.3529 102.028 78.8323 101.768 79.2469C101.508 79.6614 101.137 79.9944 100.696 80.2076C92.4331 84.1505 82.073 86.122 71.7111 86.122H71.7071C61.3457 86.1215 50.9808 84.1496 42.7188 80.2076Z" fill="#5C5B5B"/>
    <path d="M121.675 52.673C121.301 52.0509 120.731 51.5702 120.055 51.3057L74.9726 33.4717C72.8752 32.6396 70.5391 32.6396 68.4417 33.4717L23.3588 51.3035C22.7868 51.5297 22.2894 51.9111 21.9227 52.4048C21.5559 52.8986 21.3344 53.4849 21.283 54.0978C21.2317 54.7107 21.3525 55.3257 21.632 55.8736C21.9115 56.4214 22.3385 56.8803 22.8648 57.1985C23.0225 57.2931 23.1877 57.3747 23.3588 57.4424L68.4412 75.2738C70.5386 76.1061 72.8748 76.1061 74.9722 75.2738L111.937 60.6528L112.753 60.3299L113.569 60.0075L117.454 58.4709L119.086 57.8252L120.056 57.442C120.501 57.2652 120.903 56.9939 121.233 56.6468C121.563 56.2996 121.813 55.8849 121.968 55.4314C122.122 54.9778 122.175 54.4963 122.125 54.0199C122.075 53.5436 121.921 53.0839 121.676 52.6725L121.675 52.673ZM69.0415 73.7548L24.0993 55.9786L23.9595 55.9235C22.5525 55.3673 22.5525 53.376 23.9595 52.8194L69.0419 34.988C70.7539 34.3083 72.6609 34.3083 74.3728 34.988L119.455 52.8194C119.691 52.9094 119.903 53.0529 120.074 53.2388C120.246 53.4246 120.371 53.6476 120.441 53.8903C120.667 54.6603 120.338 55.5746 119.455 55.9235L119.086 56.0694L117.454 56.7151L113.57 58.2517L112.754 58.5741L111.938 58.897L74.3732 73.757C72.6613 74.4368 70.7543 74.4368 69.0424 73.757L69.0415 73.7548Z" fill="#5C5B5B"/>
    <path d="M123.343 98.9995C123.343 99.2159 123.257 99.4235 123.104 99.5765C122.951 99.7295 122.743 99.8155 122.527 99.8155H22.604C22.3876 99.8155 22.1801 99.7295 22.0271 99.5765C21.874 99.4235 21.7881 99.2159 21.7881 98.9995C21.7881 98.7831 21.874 98.5756 22.0271 98.4226C22.1801 98.2696 22.3876 98.1836 22.604 98.1836H122.527C122.743 98.1836 122.951 98.2696 123.104 98.4226C123.257 98.5756 123.343 98.7831 123.343 98.9995Z" fill="#5C5B5B"/>
    <path d="M19.2372 99.8155H15.521C15.3046 99.8155 15.0971 99.7295 14.9441 99.5765C14.791 99.4235 14.7051 99.2159 14.7051 98.9995C14.7051 98.7831 14.791 98.5756 14.9441 98.4226C15.0971 98.2696 15.3046 98.1836 15.521 98.1836H19.2372C19.4536 98.1836 19.6612 98.2696 19.8142 98.4226C19.9672 98.5756 20.0532 98.7831 20.0532 98.9995C20.0532 99.2159 19.9672 99.4235 19.8142 99.5765C19.6612 99.7295 19.4536 99.8155 19.2372 99.8155Z" fill="#5C5B5B"/>
    <path d="M37.5282 96.5889H33.812C33.5956 96.5889 33.3881 96.5029 33.2351 96.3499C33.0821 96.1969 32.9961 95.9894 32.9961 95.773C32.9961 95.5566 33.0821 95.349 33.2351 95.196C33.3881 95.043 33.5956 94.957 33.812 94.957H37.5282C37.7446 94.957 37.9522 95.043 38.1052 95.196C38.2582 95.349 38.3442 95.5566 38.3442 95.773C38.3442 95.9894 38.2582 96.1969 38.1052 96.3499C37.9522 96.5029 37.7446 96.5889 37.5282 96.5889Z" fill="#5C5B5B"/>
    <path d="M30.4452 96.5889H26.729C26.5126 96.5889 26.3051 96.5029 26.1521 96.3499C25.999 96.1969 25.9131 95.9894 25.9131 95.773C25.9131 95.5566 25.999 95.349 26.1521 95.196C26.3051 95.043 26.5126 94.957 26.729 94.957H30.4452C30.6616 94.957 30.8692 95.043 31.0222 95.196C31.1752 95.349 31.2612 95.5566 31.2612 95.773C31.2612 95.9894 31.1752 96.1969 31.0222 96.3499C30.8692 96.5029 30.6616 96.5889 30.4452 96.5889Z" fill="#5C5B5B"/>
    <path d="M106.938 96.5889H103.222C103.006 96.5889 102.798 96.5029 102.645 96.3499C102.492 96.1969 102.406 95.9894 102.406 95.773C102.406 95.5566 102.492 95.349 102.645 95.196C102.798 95.043 103.006 94.957 103.222 94.957H106.938C107.155 94.957 107.362 95.043 107.515 95.196C107.668 95.349 107.754 95.5566 107.754 95.773C107.754 95.9894 107.668 96.1969 107.515 96.3499C107.362 96.5029 107.155 96.5889 106.938 96.5889Z" fill="#5C5B5B"/>
    <path d="M114.02 96.5889H110.304C110.088 96.5889 109.88 96.5029 109.727 96.3499C109.574 96.1969 109.488 95.9894 109.488 95.773C109.488 95.5566 109.574 95.349 109.727 95.196C109.88 95.043 110.088 94.957 110.304 94.957H114.02C114.236 94.957 114.444 95.043 114.597 95.196C114.75 95.349 114.836 95.5566 114.836 95.773C114.836 95.9894 114.75 96.1969 114.597 96.3499C114.444 96.5029 114.236 96.5889 114.02 96.5889Z" fill="#5C5B5B"/>
    <path d="M129.609 99.8155H125.893C125.677 99.8155 125.469 99.7295 125.316 99.5765C125.163 99.4235 125.077 99.2159 125.077 98.9995C125.077 98.7831 125.163 98.5756 125.316 98.4226C125.469 98.2696 125.677 98.1836 125.893 98.1836H129.609C129.826 98.1836 130.033 98.2696 130.186 98.4226C130.339 98.5756 130.425 98.7831 130.425 98.9995C130.425 99.2159 130.339 99.4235 130.186 99.5765C130.033 99.7295 129.826 99.8155 129.609 99.8155Z" fill="#5C5B5B"/>
  </g>
  <defs>
    <clipPath id="clip0_11492_115858">
      <rect width="147.859" height="130" fill="white" transform="translate(0.140625 0.00390625)"/>
    </clipPath>
  </defs>
</svg>
