<svg width="148" height="131" viewBox="0 0 148 131" fill="none" xmlns="http://www.w3.org/2000/svg">
  <g clip-path="url(#clip0_11492_115964)">
    <path d="M3.58594 54.7459C5.50954 56.6702 8.04094 57.8678 10.7487 58.1347C13.4564 58.4016 16.1729 57.7211 18.4352 56.2093L10.0627 64.5792C7.99492 66.6427 6.76926 69.4019 6.62443 72.3195C6.47961 75.2371 7.42599 78.1042 9.27923 80.3623C11.1325 82.6204 13.7599 84.1077 16.6497 84.5348C19.5395 84.9618 22.4848 84.2979 24.9119 82.6723L20.5189 87.0653C18.4511 89.1288 17.2255 91.888 17.0807 94.8056C16.9358 97.7233 17.8822 100.59 19.7354 102.848C21.5887 105.106 24.2161 106.594 27.1059 107.021C29.9957 107.448 32.941 106.784 35.3681 105.158L34.294 106.232C32.0888 108.438 30.8499 111.429 30.8499 114.547C30.8499 117.666 32.0888 120.657 34.294 122.862C36.4992 125.067 39.4901 126.306 42.6088 126.306C45.7274 126.306 48.7183 125.067 50.9235 122.862L62.0672 111.718C60.4416 114.146 59.7776 117.091 60.2047 119.981C60.6317 122.871 62.1191 125.498 64.3771 127.351C66.6352 129.204 69.5023 130.151 72.4199 130.006C75.3374 129.861 78.0967 128.635 80.1601 126.568L97.0931 109.651C95.4753 112.078 94.8175 115.02 95.2473 117.906C95.677 120.791 97.1637 123.414 99.4187 125.264C101.674 127.115 104.536 128.062 107.45 127.921C110.363 127.779 113.121 126.56 115.186 124.5L141.544 98.1392C143.612 96.0758 144.837 93.3165 144.982 90.3989C145.127 87.4813 144.181 84.6142 142.327 82.3561C140.474 80.098 137.847 78.6106 134.957 78.1836C132.067 77.7566 129.122 78.4205 126.695 80.0461L132.213 74.528C134.281 72.4645 135.506 69.7053 135.651 66.7877C135.796 63.8701 134.85 61.003 132.996 58.7449C131.143 56.4868 128.516 54.9994 125.626 54.5724C122.736 54.1454 119.791 54.8093 117.364 56.4349L128.507 45.2912C130.573 43.2275 131.796 40.4691 131.94 37.553C132.084 34.6368 131.138 31.7715 129.286 29.5144C127.434 27.2573 124.808 25.77 121.92 25.3419C119.032 24.9137 116.088 25.5754 113.661 27.1981L120.755 20.1011C121.847 19.0092 122.713 17.7128 123.304 16.2862C123.895 14.8595 124.199 13.3305 124.199 11.7863C124.199 10.2421 123.895 8.71297 123.304 7.28631C122.713 5.85965 121.847 4.56335 120.755 3.47143C119.663 2.37952 118.367 1.51337 116.94 0.922431C115.514 0.33149 113.985 0.0273437 112.44 0.0273438C110.896 0.0273438 109.367 0.33149 107.94 0.922431C106.514 1.51337 105.218 2.37952 104.126 3.47143L88.3178 19.2794C89.9434 16.8523 90.6073 13.9069 90.1803 11.0171C89.7533 8.12729 88.2659 5.49988 86.0078 3.64663C83.7497 1.79339 80.8827 0.846998 77.9651 0.991824C75.0475 1.13665 72.2883 2.36232 70.2248 4.43008L48.0369 26.6181C49.6625 24.191 50.3264 21.2457 49.8994 18.3558C49.4724 15.466 47.985 12.8386 45.7269 10.9854C43.4689 9.1321 40.6018 8.18572 37.6842 8.33054C34.7666 8.47537 32.0074 9.70103 29.944 11.7688L3.58594 38.1297C2.49367 39.2214 1.6272 40.5176 1.03603 41.9443C0.444874 43.371 0.140625 44.9002 0.140625 46.4445C0.140625 47.9888 0.444874 49.518 1.03603 50.9447C1.6272 52.3714 2.49367 53.6676 3.58594 54.7593V54.7459Z" fill="white"/>
    <path d="M144.643 104.872L143.837 105.677C143.684 105.83 143.599 106.037 143.599 106.253C143.599 106.469 143.684 106.677 143.837 106.829C143.99 106.982 144.197 107.068 144.413 107.068C144.629 107.068 144.836 106.982 144.989 106.829L145.795 106.024L146.6 106.829C146.753 106.982 146.96 107.068 147.176 107.068C147.392 107.068 147.599 106.982 147.752 106.829C147.905 106.677 147.991 106.469 147.991 106.253C147.991 106.037 147.905 105.83 147.752 105.677L146.947 104.872L147.752 104.066C147.905 103.914 147.991 103.706 147.991 103.49C147.991 103.274 147.905 103.067 147.752 102.914C147.599 102.762 147.392 102.676 147.176 102.676C146.96 102.676 146.753 102.762 146.6 102.914L145.795 103.72L144.989 102.914C144.836 102.762 144.629 102.676 144.413 102.676C144.197 102.676 143.99 102.762 143.837 102.914C143.684 103.067 143.599 103.274 143.599 103.49C143.599 103.706 143.684 103.914 143.837 104.066L144.643 104.872Z" fill="white"/>
    <path d="M28.3732 122.407L27.5676 123.213C27.4921 123.288 27.4323 123.378 27.3915 123.477C27.3507 123.575 27.3298 123.681 27.3299 123.788C27.3301 123.895 27.3512 124.001 27.3922 124.099C27.4332 124.198 27.4933 124.288 27.5689 124.363C27.6445 124.439 27.7343 124.498 27.8331 124.539C27.9318 124.58 28.0376 124.601 28.1445 124.601C28.2513 124.601 28.3571 124.579 28.4558 124.538C28.5545 124.497 28.6441 124.437 28.7195 124.362L29.5251 123.556L30.3307 124.362C30.4061 124.437 30.4958 124.497 30.5944 124.538C30.6931 124.579 30.7988 124.601 30.9057 124.601C31.0125 124.601 31.1184 124.58 31.2171 124.539C31.3159 124.498 31.4056 124.439 31.4813 124.363C31.5569 124.288 31.6169 124.198 31.658 124.099C31.699 124.001 31.7201 123.895 31.7202 123.788C31.7204 123.681 31.6994 123.575 31.6587 123.477C31.6179 123.378 31.5581 123.288 31.4826 123.213L30.6771 122.407L31.4826 121.601C31.5593 121.526 31.6203 121.437 31.6619 121.338C31.7035 121.239 31.725 121.133 31.725 121.025C31.725 120.918 31.7035 120.812 31.6619 120.713C31.6203 120.614 31.5593 120.524 31.4826 120.449C31.4076 120.373 31.318 120.312 31.2191 120.27C31.1202 120.228 31.0139 120.207 30.9066 120.207C30.7993 120.207 30.6931 120.228 30.5942 120.27C30.4953 120.312 30.4057 120.373 30.3307 120.449L29.5251 121.255L28.7195 120.449C28.6445 120.373 28.5549 120.312 28.456 120.27C28.3571 120.228 28.2509 120.207 28.1435 120.207C28.0362 120.207 27.93 120.228 27.8311 120.27C27.7322 120.312 27.6426 120.373 27.5676 120.449C27.4909 120.524 27.4299 120.614 27.3883 120.713C27.3466 120.812 27.3252 120.918 27.3252 121.025C27.3252 121.133 27.3466 121.239 27.3883 121.338C27.4299 121.437 27.4909 121.526 27.5676 121.601L28.3732 122.407Z" fill="white"/>
    <path d="M7.5549 50.2781L6.74934 51.0837C6.59658 51.2365 6.51074 51.4437 6.51074 51.6597C6.51074 51.8757 6.59658 52.0829 6.74934 52.2356C6.9021 52.3884 7.10929 52.4742 7.32532 52.4742C7.54135 52.4742 7.74851 52.3884 7.90127 52.2356L8.70683 51.4301L9.5124 52.2356C9.66516 52.3884 9.87235 52.4742 10.0884 52.4742C10.3044 52.4742 10.5116 52.3884 10.6644 52.2356C10.8171 52.0829 10.903 51.8757 10.903 51.6597C10.903 51.4437 10.8171 51.2365 10.6644 51.0837L9.8588 50.2781L10.6644 49.4726C10.8171 49.3198 10.903 49.1126 10.903 48.8966C10.903 48.6805 10.8171 48.4734 10.6644 48.3206C10.5116 48.1678 10.3044 48.082 10.0884 48.082C9.87235 48.082 9.66516 48.1678 9.5124 48.3206L8.70683 49.1262L7.90127 48.3206C7.74851 48.1678 7.54135 48.082 7.32532 48.082C7.10929 48.082 6.9021 48.1678 6.74934 48.3206C6.59658 48.4734 6.51074 48.6805 6.51074 48.8966C6.51074 49.1126 6.59658 49.3198 6.74934 49.4726L7.5549 50.2781Z" fill="white"/>
    <path d="M105.489 8.45782L104.684 9.26339C104.531 9.41615 104.445 9.62335 104.445 9.83938C104.445 10.0554 104.531 10.2626 104.684 10.4153C104.837 10.5681 105.044 10.6539 105.26 10.6539C105.476 10.6539 105.683 10.5681 105.836 10.4153L106.641 9.60977L107.447 10.4153C107.6 10.5681 107.807 10.6539 108.023 10.6539C108.239 10.6539 108.446 10.5681 108.599 10.4153C108.752 10.2626 108.837 10.0554 108.837 9.83938C108.837 9.62335 108.752 9.41615 108.599 9.26339L107.793 8.45782L108.599 7.65226C108.752 7.4995 108.837 7.2923 108.837 7.07627C108.837 6.86023 108.752 6.65304 108.599 6.50028C108.446 6.34752 108.239 6.26172 108.023 6.26172C107.807 6.26172 107.6 6.34752 107.447 6.50028L106.641 7.30585L105.836 6.50028C105.683 6.34752 105.476 6.26172 105.26 6.26172C105.044 6.26172 104.837 6.34752 104.684 6.50028C104.531 6.65304 104.445 6.86023 104.445 7.07627C104.445 7.2923 104.531 7.4995 104.684 7.65226L105.489 8.45782Z" fill="white"/>
    <path d="M90.592 123.535C91.0625 123.535 91.5225 123.675 91.9137 123.936C92.305 124.198 92.6099 124.569 92.79 125.004C92.97 125.439 93.0172 125.917 92.9254 126.378C92.8336 126.84 92.607 127.264 92.2742 127.597C91.9415 127.929 91.5176 128.156 91.0561 128.248C90.5946 128.339 90.1163 128.292 89.6815 128.112C89.2468 127.932 88.8753 127.627 88.6138 127.236C88.3524 126.845 88.2129 126.385 88.2129 125.914C88.2129 125.283 88.4635 124.678 88.9097 124.232C89.3559 123.786 89.961 123.535 90.592 123.535ZM90.592 126.663C90.7402 126.663 90.885 126.62 91.0082 126.537C91.1314 126.455 91.2274 126.338 91.2841 126.201C91.3408 126.064 91.3557 125.913 91.3267 125.768C91.2978 125.623 91.2265 125.489 91.1217 125.385C91.0169 125.28 90.8835 125.208 90.7381 125.179C90.5928 125.151 90.4422 125.165 90.3053 125.222C90.1684 125.279 90.0514 125.375 89.9691 125.498C89.8867 125.621 89.8428 125.766 89.8428 125.914C89.8428 126.113 89.9217 126.304 90.0622 126.444C90.2027 126.585 90.3933 126.663 90.592 126.663Z" fill="white"/>
    <path d="M135.427 47.7305C135.898 47.7299 136.358 47.869 136.75 48.1301C137.141 48.3912 137.447 48.7626 137.627 49.1973C137.808 49.6319 137.855 50.1104 137.764 50.5721C137.672 51.0337 137.446 51.4579 137.113 51.7909C136.78 52.1239 136.357 52.3507 135.895 52.4428C135.433 52.5348 134.955 52.4878 134.52 52.3078C134.085 52.1279 133.713 51.8229 133.452 51.4316C133.19 51.0403 133.051 50.5802 133.051 50.1096C133.051 49.4791 133.301 48.8743 133.747 48.4282C134.192 47.9821 134.797 47.7312 135.427 47.7305ZM135.427 50.8587C135.576 50.8593 135.722 50.8156 135.846 50.7332C135.97 50.6507 136.067 50.5334 136.124 50.3959C136.181 50.2584 136.196 50.107 136.167 49.9609C136.138 49.8148 136.067 49.6806 135.962 49.5753C135.856 49.4699 135.722 49.3983 135.576 49.3693C135.43 49.3404 135.278 49.3555 135.141 49.4128C135.003 49.47 134.886 49.5668 134.804 49.6909C134.721 49.8149 134.677 49.9606 134.678 50.1096C134.679 50.3081 134.758 50.4982 134.898 50.6385C135.039 50.7789 135.229 50.858 135.427 50.8587Z" fill="white"/>
    <path d="M35.841 9.55078C36.3115 9.55078 36.7715 9.69031 37.1628 9.95173C37.554 10.2132 37.8589 10.5847 38.039 11.0195C38.2191 11.4542 38.2662 11.9325 38.1744 12.394C38.0826 12.8555 37.856 13.2795 37.5233 13.6122C37.1906 13.9449 36.7667 14.1715 36.3052 14.2633C35.8437 14.3551 35.3653 14.308 34.9306 14.1279C34.4958 13.9478 34.1243 13.6429 33.8629 13.2517C33.6014 12.8604 33.4619 12.4004 33.4619 11.9299C33.4633 11.2993 33.7144 10.695 34.1603 10.2492C34.6062 9.8033 35.2105 9.5522 35.841 9.55078ZM35.841 12.6818C35.9897 12.6818 36.1351 12.6377 36.2587 12.555C36.3823 12.4724 36.4787 12.355 36.5356 12.2176C36.5926 12.0802 36.6074 11.9291 36.5784 11.7832C36.5494 11.6374 36.4778 11.5034 36.3726 11.3983C36.2675 11.2931 36.1335 11.2215 35.9877 11.1925C35.8418 11.1635 35.6907 11.1784 35.5533 11.2353C35.4159 11.2922 35.2985 11.3885 35.2159 11.5122C35.1332 11.6358 35.0891 11.7812 35.0891 11.9299C35.0891 12.1293 35.1684 12.3206 35.3094 12.4616C35.4504 12.6026 35.6416 12.6818 35.841 12.6818Z" fill="white"/>
    <path d="M8.12616 83.832C8.59671 83.832 9.05668 83.9716 9.44792 84.233C9.83916 84.4944 10.1441 84.866 10.3242 85.3007C10.5042 85.7354 10.5513 86.2138 10.4595 86.6753C10.3677 87.1368 10.1411 87.5607 9.80842 87.8934C9.4757 88.2262 9.05181 88.4528 8.59031 88.5446C8.12881 88.6364 7.65043 88.5892 7.21571 88.4092C6.78099 88.2291 6.40944 87.9242 6.14802 87.5329C5.8866 87.1417 5.74707 86.6817 5.74707 86.2111C5.74778 85.5804 5.99865 84.9757 6.44466 84.5297C6.89068 84.0836 7.49541 83.8327 8.12616 83.832ZM8.12616 86.9603C8.27498 86.9603 8.42045 86.9162 8.54416 86.8334C8.66786 86.7507 8.76421 86.6331 8.82103 86.4956C8.87786 86.358 8.89258 86.2067 8.86335 86.0608C8.83412 85.9149 8.76227 85.7809 8.65685 85.6759C8.55143 85.5708 8.4172 85.4994 8.27118 85.4707C8.12515 85.442 7.9739 85.4573 7.83657 85.5146C7.69923 85.5719 7.58199 85.6687 7.4997 85.7927C7.41741 85.9167 7.37376 86.0623 7.37429 86.2111C7.37429 86.3098 7.39377 86.4074 7.43159 86.4985C7.46941 86.5895 7.52481 86.6723 7.59466 86.7419C7.66451 86.8115 7.74743 86.8666 7.83863 86.9041C7.92984 86.9416 8.02756 86.9607 8.12616 86.9603Z" fill="white"/>
    <path d="M3.58594 54.7459C5.50954 56.6702 8.04094 57.8678 10.7487 58.1347C13.4564 58.4016 16.1729 57.7211 18.4352 56.2093L10.0627 64.5792C7.99492 66.6427 6.76926 69.4019 6.62443 72.3195C6.47961 75.2371 7.42599 78.1042 9.27923 80.3623C11.1325 82.6204 13.7599 84.1077 16.6497 84.5348C19.5395 84.9618 22.4848 84.2979 24.9119 82.6723L20.5189 87.0653C18.4511 89.1288 17.2255 91.888 17.0807 94.8056C16.9358 97.7233 17.8822 100.59 19.7354 102.848C21.5887 105.106 24.2161 106.594 27.1059 107.021C29.9957 107.448 32.941 106.784 35.3681 105.158L34.294 106.232C32.0888 108.438 30.8499 111.429 30.8499 114.547C30.8499 117.666 32.0888 120.657 34.294 122.862C36.4992 125.067 39.4901 126.306 42.6088 126.306C45.7274 126.306 48.7183 125.067 50.9235 122.862L62.0672 111.718C60.4416 114.146 59.7776 117.091 60.2047 119.981C60.6317 122.871 62.1191 125.498 64.3771 127.351C66.6352 129.204 69.5023 130.151 72.4199 130.006C75.3374 129.861 78.0967 128.635 80.1601 126.568L97.0931 109.651C95.4753 112.078 94.8175 115.02 95.2473 117.906C95.677 120.791 97.1637 123.414 99.4187 125.264C101.674 127.115 104.536 128.062 107.45 127.921C110.363 127.779 113.121 126.56 115.186 124.5L141.544 98.1392C143.612 96.0758 144.837 93.3165 144.982 90.3989C145.127 87.4813 144.181 84.6142 142.327 82.3561C140.474 80.098 137.847 78.6106 134.957 78.1836C132.067 77.7566 129.122 78.4205 126.695 80.0461L132.213 74.528C134.281 72.4645 135.506 69.7053 135.651 66.7877C135.796 63.8701 134.85 61.003 132.996 58.7449C131.143 56.4868 128.516 54.9994 125.626 54.5724C122.736 54.1454 119.791 54.8093 117.364 56.4349L128.507 45.2912C130.573 43.2275 131.796 40.4691 131.94 37.553C132.084 34.6368 131.138 31.7715 129.286 29.5144C127.434 27.2573 124.808 25.77 121.92 25.3419C119.032 24.9137 116.088 25.5754 113.661 27.1981L120.755 20.1011C121.847 19.0092 122.713 17.7128 123.304 16.2862C123.895 14.8595 124.199 13.3305 124.199 11.7863C124.199 10.2421 123.895 8.71297 123.304 7.28631C122.713 5.85965 121.847 4.56335 120.755 3.47143C119.663 2.37952 118.367 1.51337 116.94 0.922431C115.514 0.33149 113.985 0.0273437 112.44 0.0273438C110.896 0.0273438 109.367 0.33149 107.94 0.922431C106.514 1.51337 105.218 2.37952 104.126 3.47143L88.3178 19.2794C89.9434 16.8523 90.6073 13.9069 90.1803 11.0171C89.7533 8.12729 88.2659 5.49988 86.0078 3.64663C83.7497 1.79339 80.8827 0.846998 77.9651 0.991824C75.0475 1.13665 72.2883 2.36232 70.2248 4.43008L48.0369 26.6181C49.6625 24.191 50.3264 21.2457 49.8994 18.3558C49.4724 15.466 47.985 12.8386 45.7269 10.9854C43.4689 9.1321 40.6018 8.18572 37.6842 8.33054C34.7666 8.47537 32.0074 9.70103 29.944 11.7688L3.58594 38.1297C2.49367 39.2214 1.6272 40.5176 1.03603 41.9443C0.444874 43.371 0.140625 44.9002 0.140625 46.4445C0.140625 47.9888 0.444874 49.518 1.03603 50.9447C1.6272 52.3714 2.49367 53.6676 3.58594 54.7593V54.7459Z" fill="#F5F5F5"/>
    <path d="M144.643 104.872L143.837 105.677C143.684 105.83 143.599 106.037 143.599 106.253C143.599 106.469 143.684 106.677 143.837 106.829C143.99 106.982 144.197 107.068 144.413 107.068C144.629 107.068 144.836 106.982 144.989 106.829L145.795 106.024L146.6 106.829C146.753 106.982 146.96 107.068 147.176 107.068C147.392 107.068 147.599 106.982 147.752 106.829C147.905 106.677 147.991 106.469 147.991 106.253C147.991 106.037 147.905 105.83 147.752 105.677L146.947 104.872L147.752 104.066C147.905 103.914 147.991 103.706 147.991 103.49C147.991 103.274 147.905 103.067 147.752 102.914C147.599 102.762 147.392 102.676 147.176 102.676C146.96 102.676 146.753 102.762 146.6 102.914L145.795 103.72L144.989 102.914C144.836 102.762 144.629 102.676 144.413 102.676C144.197 102.676 143.99 102.762 143.837 102.914C143.684 103.067 143.599 103.274 143.599 103.49C143.599 103.706 143.684 103.914 143.837 104.066L144.643 104.872Z" fill="#FFBCB0"/>
    <path d="M28.3732 122.407L27.5676 123.213C27.4921 123.288 27.4323 123.378 27.3915 123.477C27.3507 123.575 27.3298 123.681 27.3299 123.788C27.3301 123.895 27.3512 124.001 27.3922 124.099C27.4332 124.198 27.4933 124.288 27.5689 124.363C27.6445 124.439 27.7343 124.498 27.8331 124.539C27.9318 124.58 28.0376 124.601 28.1445 124.601C28.2513 124.601 28.3571 124.579 28.4558 124.538C28.5545 124.497 28.6441 124.437 28.7195 124.362L29.5251 123.556L30.3307 124.362C30.4061 124.437 30.4958 124.497 30.5944 124.538C30.6931 124.579 30.7988 124.601 30.9057 124.601C31.0125 124.601 31.1184 124.58 31.2171 124.539C31.3159 124.498 31.4056 124.439 31.4813 124.363C31.5569 124.288 31.6169 124.198 31.658 124.099C31.699 124.001 31.7201 123.895 31.7202 123.788C31.7204 123.681 31.6994 123.575 31.6587 123.477C31.6179 123.378 31.5581 123.288 31.4826 123.213L30.6771 122.407L31.4826 121.601C31.5593 121.526 31.6203 121.437 31.6619 121.338C31.7035 121.239 31.725 121.133 31.725 121.025C31.725 120.918 31.7035 120.812 31.6619 120.713C31.6203 120.614 31.5593 120.524 31.4826 120.449C31.4076 120.373 31.318 120.312 31.2191 120.27C31.1202 120.228 31.0139 120.207 30.9066 120.207C30.7993 120.207 30.6931 120.228 30.5942 120.27C30.4953 120.312 30.4057 120.373 30.3307 120.449L29.5251 121.255L28.7195 120.449C28.6445 120.373 28.5549 120.312 28.456 120.27C28.3571 120.228 28.2509 120.207 28.1435 120.207C28.0362 120.207 27.93 120.228 27.8311 120.27C27.7322 120.312 27.6426 120.373 27.5676 120.449C27.4909 120.524 27.4299 120.614 27.3883 120.713C27.3466 120.812 27.3252 120.918 27.3252 121.025C27.3252 121.133 27.3466 121.239 27.3883 121.338C27.4299 121.437 27.4909 121.526 27.5676 121.601L28.3732 122.407Z" fill="#FFBCB0"/>
    <path d="M7.5549 50.2781L6.74934 51.0837C6.59658 51.2365 6.51074 51.4437 6.51074 51.6597C6.51074 51.8757 6.59658 52.0829 6.74934 52.2356C6.9021 52.3884 7.10929 52.4742 7.32532 52.4742C7.54135 52.4742 7.74851 52.3884 7.90127 52.2356L8.70683 51.4301L9.5124 52.2356C9.66516 52.3884 9.87235 52.4742 10.0884 52.4742C10.3044 52.4742 10.5116 52.3884 10.6644 52.2356C10.8171 52.0829 10.903 51.8757 10.903 51.6597C10.903 51.4437 10.8171 51.2365 10.6644 51.0837L9.8588 50.2781L10.6644 49.4726C10.8171 49.3198 10.903 49.1126 10.903 48.8966C10.903 48.6805 10.8171 48.4734 10.6644 48.3206C10.5116 48.1678 10.3044 48.082 10.0884 48.082C9.87235 48.082 9.66516 48.1678 9.5124 48.3206L8.70683 49.1262L7.90127 48.3206C7.74851 48.1678 7.54135 48.082 7.32532 48.082C7.10929 48.082 6.9021 48.1678 6.74934 48.3206C6.59658 48.4734 6.51074 48.6805 6.51074 48.8966C6.51074 49.1126 6.59658 49.3198 6.74934 49.4726L7.5549 50.2781Z" fill="#FFBCB0"/>
    <path d="M105.489 8.45782L104.684 9.26339C104.531 9.41615 104.445 9.62335 104.445 9.83938C104.445 10.0554 104.531 10.2626 104.684 10.4153C104.837 10.5681 105.044 10.6539 105.26 10.6539C105.476 10.6539 105.683 10.5681 105.836 10.4153L106.641 9.60977L107.447 10.4153C107.6 10.5681 107.807 10.6539 108.023 10.6539C108.239 10.6539 108.446 10.5681 108.599 10.4153C108.752 10.2626 108.837 10.0554 108.837 9.83938C108.837 9.62335 108.752 9.41615 108.599 9.26339L107.793 8.45782L108.599 7.65226C108.752 7.4995 108.837 7.2923 108.837 7.07627C108.837 6.86023 108.752 6.65304 108.599 6.50028C108.446 6.34752 108.239 6.26172 108.023 6.26172C107.807 6.26172 107.6 6.34752 107.447 6.50028L106.641 7.30585L105.836 6.50028C105.683 6.34752 105.476 6.26172 105.26 6.26172C105.044 6.26172 104.837 6.34752 104.684 6.50028C104.531 6.65304 104.445 6.86023 104.445 7.07627C104.445 7.2923 104.531 7.4995 104.684 7.65226L105.489 8.45782Z" fill="#FFBCB0"/>
    <path d="M90.592 123.535C91.0625 123.535 91.5225 123.675 91.9137 123.936C92.305 124.198 92.6099 124.569 92.79 125.004C92.97 125.439 93.0172 125.917 92.9254 126.378C92.8336 126.84 92.607 127.264 92.2742 127.597C91.9415 127.929 91.5176 128.156 91.0561 128.248C90.5946 128.339 90.1163 128.292 89.6815 128.112C89.2468 127.932 88.8753 127.627 88.6138 127.236C88.3524 126.845 88.2129 126.385 88.2129 125.914C88.2129 125.283 88.4635 124.678 88.9097 124.232C89.3559 123.786 89.961 123.535 90.592 123.535ZM90.592 126.663C90.7402 126.663 90.885 126.62 91.0082 126.537C91.1314 126.455 91.2274 126.338 91.2841 126.201C91.3408 126.064 91.3557 125.913 91.3267 125.768C91.2978 125.623 91.2265 125.489 91.1217 125.385C91.0169 125.28 90.8835 125.208 90.7381 125.179C90.5928 125.151 90.4422 125.165 90.3053 125.222C90.1684 125.279 90.0514 125.375 89.9691 125.498C89.8867 125.621 89.8428 125.766 89.8428 125.914C89.8428 126.113 89.9217 126.304 90.0622 126.444C90.2027 126.585 90.3933 126.663 90.592 126.663Z" fill="#FFBCB0"/>
    <path d="M135.427 47.7305C135.898 47.7299 136.358 47.869 136.75 48.1301C137.141 48.3912 137.447 48.7626 137.627 49.1973C137.808 49.6319 137.855 50.1104 137.764 50.5721C137.672 51.0337 137.446 51.4579 137.113 51.7909C136.78 52.1239 136.357 52.3507 135.895 52.4428C135.433 52.5348 134.955 52.4878 134.52 52.3078C134.085 52.1279 133.713 51.8229 133.452 51.4316C133.19 51.0403 133.051 50.5802 133.051 50.1096C133.051 49.4791 133.301 48.8743 133.747 48.4282C134.192 47.9821 134.797 47.7312 135.427 47.7305ZM135.427 50.8587C135.576 50.8593 135.722 50.8156 135.846 50.7332C135.97 50.6507 136.067 50.5334 136.124 50.3959C136.181 50.2584 136.196 50.107 136.167 49.9609C136.138 49.8148 136.067 49.6806 135.962 49.5753C135.856 49.4699 135.722 49.3983 135.576 49.3693C135.43 49.3404 135.278 49.3555 135.141 49.4128C135.003 49.47 134.886 49.5668 134.804 49.6909C134.721 49.8149 134.677 49.9606 134.678 50.1096C134.679 50.3081 134.758 50.4982 134.898 50.6385C135.039 50.7789 135.229 50.858 135.427 50.8587Z" fill="#FFBCB0"/>
    <path d="M35.841 9.55078C36.3115 9.55078 36.7715 9.69031 37.1628 9.95173C37.554 10.2132 37.8589 10.5847 38.039 11.0195C38.2191 11.4542 38.2662 11.9325 38.1744 12.394C38.0826 12.8555 37.856 13.2795 37.5233 13.6122C37.1906 13.9449 36.7667 14.1715 36.3052 14.2633C35.8437 14.3551 35.3653 14.308 34.9306 14.1279C34.4958 13.9478 34.1243 13.6429 33.8629 13.2517C33.6014 12.8604 33.4619 12.4004 33.4619 11.9299C33.4633 11.2993 33.7144 10.695 34.1603 10.2492C34.6062 9.8033 35.2105 9.5522 35.841 9.55078ZM35.841 12.6818C35.9897 12.6818 36.1351 12.6377 36.2587 12.555C36.3823 12.4724 36.4787 12.355 36.5356 12.2176C36.5926 12.0802 36.6074 11.9291 36.5784 11.7832C36.5494 11.6374 36.4778 11.5034 36.3726 11.3983C36.2675 11.2931 36.1335 11.2215 35.9877 11.1925C35.8418 11.1635 35.6907 11.1784 35.5533 11.2353C35.4159 11.2922 35.2985 11.3885 35.2159 11.5122C35.1332 11.6358 35.0891 11.7812 35.0891 11.9299C35.0891 12.1293 35.1684 12.3206 35.3094 12.4616C35.4504 12.6026 35.6416 12.6818 35.841 12.6818Z" fill="#FFBCB0"/>
    <path d="M8.12616 83.832C8.59671 83.832 9.05668 83.9716 9.44792 84.233C9.83916 84.4944 10.1441 84.866 10.3242 85.3007C10.5042 85.7354 10.5513 86.2138 10.4595 86.6753C10.3677 87.1368 10.1411 87.5607 9.80842 87.8934C9.4757 88.2262 9.05181 88.4528 8.59031 88.5446C8.12881 88.6364 7.65043 88.5892 7.21571 88.4092C6.78099 88.2291 6.40944 87.9242 6.14802 87.5329C5.8866 87.1417 5.74707 86.6817 5.74707 86.2111C5.74778 85.5804 5.99865 84.9757 6.44466 84.5297C6.89068 84.0836 7.49541 83.8327 8.12616 83.832ZM8.12616 86.9603C8.27498 86.9603 8.42045 86.9162 8.54416 86.8334C8.66786 86.7507 8.76421 86.6331 8.82103 86.4956C8.87786 86.358 8.89258 86.2067 8.86335 86.0608C8.83412 85.9149 8.76227 85.7809 8.65685 85.6759C8.55143 85.5708 8.4172 85.4994 8.27118 85.4707C8.12515 85.442 7.9739 85.4573 7.83657 85.5146C7.69923 85.5719 7.58199 85.6687 7.4997 85.7927C7.41741 85.9167 7.37376 86.0623 7.37429 86.2111C7.37429 86.3098 7.39377 86.4074 7.43159 86.4985C7.46941 86.5895 7.52481 86.6723 7.59466 86.7419C7.66451 86.8115 7.74743 86.8666 7.83863 86.9041C7.92984 86.9416 8.02756 86.9607 8.12616 86.9603Z" fill="#FFBCB0"/>
    <path d="M86.0436 85.4492V89.324C86.0436 89.3319 86.0405 89.3394 86.0349 89.3449C86.0294 89.3504 86.0219 89.3536 86.0141 89.3536H64.3552C64.3473 89.3536 64.3398 89.3504 64.3343 89.3449C64.3287 89.3394 64.3256 89.3319 64.3256 89.324V85.4492H30.543L30.7121 86.7677C30.9807 88.8479 31.8632 90.8009 33.247 92.3771C34.3107 93.5853 35.6346 94.5364 37.1191 95.159C38.406 95.6927 39.7859 95.9665 41.1791 95.9646H109.182C110.576 95.9689 111.956 95.695 113.242 95.159C114.727 94.5364 116.05 93.5853 117.114 92.3771C118.353 90.9651 119.194 89.2486 119.55 87.4041C119.59 87.1946 119.622 86.9825 119.649 86.7677L119.778 85.7714L119.818 85.4492H86.0436ZM118.707 87.4954C118.69 87.5705 118.672 87.643 118.656 87.7155C118.639 87.788 118.639 87.7854 118.629 87.8176C118.618 87.8498 118.61 87.9008 118.596 87.9411C118.583 87.9814 118.596 87.9975 118.575 88.0243C118.553 88.0512 118.54 88.1452 118.521 88.207C118.481 88.3493 118.435 88.4755 118.387 88.6285C118.352 88.7279 118.314 88.8245 118.277 88.9239C118.277 88.9561 118.253 88.9884 118.239 89.0206C118.202 89.1173 118.161 89.2139 118.118 89.3079C118.118 89.3401 118.092 89.3723 118.076 89.4046C118.059 89.4368 118.049 89.4663 118.033 89.4985C118.016 89.5308 118.006 89.5603 117.99 89.5925L117.944 89.6865L117.898 89.7805C117.881 89.8101 117.866 89.8406 117.853 89.8718C117.772 90.0222 117.692 90.1725 117.606 90.3202L117.501 90.4921C117.466 90.5485 117.431 90.6049 117.393 90.6613C117.356 90.7176 117.359 90.7203 117.34 90.7472C117.321 90.774 117.262 90.8626 117.224 90.919L117.165 91.0023C117.15 91.0266 117.133 91.0499 117.114 91.0721C117.031 91.1929 116.942 91.3084 116.846 91.4239L116.789 91.4937L116.725 91.5742C116.704 91.6014 116.681 91.6274 116.658 91.6521L116.593 91.73L116.526 91.8079C116.48 91.8589 116.438 91.9099 116.392 91.9582C116.271 92.0925 116.145 92.2267 116.016 92.3476C115.973 92.3878 115.933 92.4308 115.887 92.4711C115.841 92.5114 115.785 92.5677 115.731 92.6161L115.586 92.745L115.431 92.8793L115.35 92.9437C115.108 93.1424 114.856 93.3277 114.598 93.5022L114.507 93.5613C114.257 93.7251 113.997 93.8782 113.731 94.0178L113.64 94.0661C113.548 94.1144 113.457 94.1601 113.371 94.2031L113.186 94.289L112.901 94.4125L112.804 94.4528C112.592 94.536 112.377 94.6139 112.157 94.6837L112.093 94.7052L112.023 94.7267C111.993 94.7267 111.967 94.7455 111.937 94.7509L111.854 94.7777L111.746 94.8072H111.69L111.62 94.8261C111.451 94.869 111.282 94.9093 111.11 94.9442L111.005 94.963C110.885 94.9872 110.761 95.0086 110.637 95.0248H110.552H110.441L110.318 95.0408H110.232L110.031 95.0597H109.961H109.939H109.848H109.708H109.633H109.542H40.9777C40.7844 95.0597 40.5937 95.0597 40.4057 95.0301H40.3171L40.1426 95.0113H40.0486L39.7532 94.971L39.67 94.9576H39.6056L39.5089 94.9415L39.4176 94.9254L39.3263 94.9093L39.2296 94.8878L39.1142 94.8636L39.0094 94.8421L38.9047 94.8153L38.7785 94.7858L38.7114 94.7696C38.4966 94.7106 38.2818 94.6488 38.0723 94.5763L37.981 94.5441L37.7742 94.4716L37.5809 94.3964C37.4493 94.3427 37.3124 94.289 37.1916 94.2299L36.9445 94.1145C36.7995 94.0446 36.6545 93.9694 36.5149 93.8916L36.4182 93.8379L36.2195 93.7251L36.1389 93.6768L36.0745 93.6365L36.0154 93.5989L35.9564 93.5613C35.8597 93.4995 35.763 93.4378 35.669 93.3706L35.5965 93.3223L35.4623 93.2256L35.379 93.1639L35.2931 93.0994L35.2126 93.0377C35.0998 92.9518 34.9924 92.8631 34.885 92.7692L34.7185 92.6241L34.6352 92.5489L34.4661 92.3932L34.3936 92.3234L34.2351 92.165L34.1599 92.0871L34.0821 92.0066C33.9827 91.8992 33.8834 91.7917 33.7867 91.6789L33.7142 91.593L33.6444 91.5098C33.6229 91.4802 33.5987 91.4534 33.5772 91.4265L33.4269 91.2332C33.3866 91.1822 33.3463 91.1285 33.3087 91.0748L33.2389 90.9808L33.1771 90.8895C33.0321 90.6827 32.9087 90.4679 32.769 90.2504C32.6562 90.0571 32.5488 89.8611 32.4495 89.6597L32.4011 89.5576L32.3528 89.4583C32.3206 89.3885 32.291 89.3213 32.2615 89.2515L32.2159 89.1495L32.1729 89.0447L32.1299 88.94L32.0897 88.8353L32.0494 88.7279L32.0145 88.6312C31.9634 88.4835 31.9151 88.3385 31.8694 88.1881L31.8372 88.0808L31.805 87.968L31.7808 87.882C31.754 87.7827 31.7298 87.6833 31.7057 87.5813C31.7057 87.5544 31.7057 87.5276 31.6869 87.5007C31.6681 87.4739 31.6681 87.4041 31.6573 87.3557L31.6412 87.2805C31.5956 87.0577 31.5606 86.8348 31.5311 86.6065L31.4801 86.2091H63.52V89.2676C63.5202 89.3742 63.5402 89.4799 63.5791 89.5791C63.6215 89.6863 63.6852 89.7837 63.7665 89.8654C63.8478 89.9471 63.9448 90.0114 64.0517 90.0544C64.1519 90.0933 64.2584 90.1133 64.3659 90.1135H86.0248C86.1323 90.1133 86.2388 90.0933 86.339 90.0544C86.4459 90.0114 86.5429 89.9471 86.6242 89.8654C86.7055 89.7837 86.7692 89.6863 86.8116 89.5791C86.8505 89.4799 86.8705 89.3742 86.8707 89.2676V86.2091H118.911L118.86 86.6065C118.86 86.6549 118.86 86.7005 118.841 86.7489C118.822 86.7972 118.841 86.8053 118.841 86.8348L118.825 86.9449L118.809 87.0362C118.79 87.1409 118.771 87.2429 118.749 87.3477C118.72 87.4336 118.712 87.4658 118.707 87.4954Z" fill="#DBDBDB"/>
    <path d="M118.899 86.2617L118.848 86.6591C118.543 89.0073 117.393 91.1641 115.615 92.7273C113.836 94.2905 111.55 95.1535 109.182 95.1552H41.1787C38.8107 95.1535 36.5242 94.2905 34.7456 92.7273C32.967 91.1641 31.8176 89.0073 31.5119 86.6591L31.4609 86.2617H63.5009V89.3202C63.501 89.4268 63.521 89.5324 63.5599 89.6317C63.6023 89.7388 63.6661 89.8362 63.7473 89.918C63.8286 89.9997 63.9256 90.064 64.0325 90.107C64.1327 90.1459 64.2392 90.1659 64.3467 90.166H86.0056C86.1131 90.1659 86.2196 90.1459 86.3198 90.107C86.4267 90.064 86.5238 89.9997 86.605 89.918C86.6863 89.8362 86.75 89.7388 86.7924 89.6317C86.8313 89.5324 86.8513 89.4268 86.8515 89.3202V86.2617H118.899Z" fill="#DBDBDB"/>
    <path d="M112.715 46.3552V84.5768H86.0137C85.9068 84.5765 85.801 84.5975 85.7023 84.6385C85.5957 84.6814 85.4988 84.7453 85.4176 84.8265C85.3364 84.9077 85.2725 85.0046 85.2297 85.1111C85.1886 85.2098 85.1676 85.3157 85.1679 85.4226V88.4811H65.2007V85.4226C65.2007 85.253 65.1495 85.0873 65.0536 84.9474C64.9578 84.8074 64.8218 84.6998 64.6636 84.6385C64.5649 84.5975 64.4591 84.5765 64.3522 84.5768H37.6504V46.3552C37.6511 45.3055 38.0683 44.2989 38.8103 43.5563C39.5523 42.8138 40.5586 42.396 41.6084 42.3945H108.755C109.805 42.3952 110.812 42.8128 111.555 43.5554C112.297 44.298 112.715 45.305 112.715 46.3552Z" fill="white"/>
    <path d="M107.286 73.4258H72.999V75.8237H107.286V73.4258Z" fill="#FFBCB0"/>
    <g style="mix-blend-mode:multiply">
      <path d="M115.486 85.7711V47.4878C115.484 46.1253 114.985 44.8103 114.083 43.7891C113.181 42.768 111.938 42.1106 110.586 41.9401C110.356 41.9109 110.125 41.8965 109.893 41.8971H88.5216C88.5995 41.7629 84.2709 41.6286 78.7474 41.4863L78.7931 41.5749L78.9515 41.8971H70.4716C70.5231 41.6983 70.5626 41.4966 70.5898 41.293H70.1279C70.144 41.4976 70.144 41.7032 70.1279 41.9079H42.7388C41.2565 41.9093 39.8353 42.4988 38.7871 43.5469C37.739 44.5951 37.1495 46.0163 37.1481 47.4986V85.7819H30.7412L30.9775 87.6212L31.0285 88.0186C31.0581 88.2603 31.0983 88.4993 31.144 88.7329C31.3048 89.5723 31.5616 90.3904 31.9093 91.1711C32.1547 91.724 32.4438 92.2565 32.7739 92.7635C33.3577 93.6647 34.0665 94.4784 34.8791 95.1802C35.6307 95.8299 36.4639 96.3788 37.3576 96.8128H115.264C117.116 95.9128 118.692 94.532 119.828 92.8145C120.776 91.3752 121.382 89.7385 121.601 88.0294L121.652 87.632L121.885 85.7926L115.486 85.7711ZM119.987 87.8012C119.749 89.6389 118.992 91.3706 117.804 92.793C116.993 93.7624 116.001 94.5657 114.885 95.1587C113.48 95.9077 111.912 96.2988 110.32 96.2972H42.3198C41.2719 96.2973 40.2309 96.1278 39.2372 95.7951C38.728 95.6246 38.234 95.4117 37.7604 95.1587C36.6646 94.5761 35.6896 93.7907 34.8872 92.844C33.6715 91.4147 32.898 89.6625 32.6611 87.8012L32.6101 87.4037H64.3386V85.712H38.8022V47.4878C38.8036 46.438 39.2215 45.4317 39.964 44.6897C40.7066 43.9476 41.7132 43.5305 42.7629 43.5298H109.907C110.957 43.5298 111.964 43.9467 112.706 44.6889C113.449 45.4311 113.867 46.4378 113.867 47.4878V85.712H87.1629C87.0563 85.7122 86.9506 85.7322 86.8514 85.7711C86.7438 85.8135 86.6461 85.8776 86.5643 85.9594C86.4826 86.0411 86.4185 86.1388 86.3761 86.2464C86.3372 86.3456 86.3172 86.4513 86.317 86.5579V89.6164H66.3471V88.4778H65.2113V85.712H64.4057V87.4037H64.6742V90.4622C64.6739 90.5691 64.6949 90.675 64.736 90.7737C64.7972 90.9319 64.9049 91.0678 65.0448 91.1637C65.1848 91.2595 65.3505 91.3108 65.5201 91.3107H87.1629C87.274 91.3107 87.3839 91.2889 87.4866 91.2464C87.5892 91.2039 87.6824 91.1415 87.761 91.063C87.8395 90.9845 87.9018 90.8912 87.9444 90.7886C87.9869 90.686 88.0087 90.576 88.0087 90.4649V87.4064H120.049L119.987 87.8012Z" fill="#DBDBDB"/>
    </g>
    <path d="M107.286 66.2227H72.999V68.6206H107.286V66.2227Z" fill="#FFBCB0"/>
    <path d="M107.286 59.0273H72.999V61.4253H107.286V59.0273Z" fill="#FFBCB0"/>
    <path d="M107.286 51.8242H83.8066V54.2221H107.286V51.8242Z" fill="#FFBCB0"/>
    <path d="M85.702 84.6367C85.5951 84.6797 85.498 84.744 85.4168 84.8257C85.3355 84.9074 85.2718 85.0048 85.2294 85.112V88.5411H65.144V85.112C65.102 85.0046 65.0384 84.907 64.9571 84.8252C64.8758 84.7435 64.7786 84.6793 64.6714 84.6367H29.6133L29.8496 86.4761L29.9006 86.8735C30.0935 88.3901 30.5923 89.8517 31.3667 91.1699C31.7036 91.7476 32.0929 92.2932 32.5294 92.7998C32.8968 93.2312 33.2962 93.6342 33.7243 94.0055C34.2216 94.4381 34.7553 94.8271 35.3194 95.1682C37.0867 96.2372 39.113 96.8018 41.1785 96.8008H109.181C111.946 96.8 114.616 95.7923 116.691 93.9663C118.767 92.1402 120.106 89.6208 120.459 86.8789L120.51 86.4815L120.599 85.7806L120.744 84.6421L85.702 84.6367ZM40.9771 95.1521C40.7837 95.1521 40.5931 95.1521 40.4051 95.1226H40.3165L40.142 95.1037H40.048L39.7526 95.0635L39.6694 95.05H39.6049L39.5083 95.034L39.417 95.0178L39.3257 95.0017L39.229 94.9802L39.1136 94.9561L39.0088 94.9346L38.9041 94.9077L38.7779 94.8782L38.7108 94.8621C38.496 94.803 38.2811 94.7412 38.0717 94.6687L37.9804 94.6365L37.7736 94.564L37.5803 94.4888C37.4487 94.4351 37.3118 94.3814 37.1909 94.3224L36.9439 94.2069C36.7989 94.1371 36.6539 94.0619 36.5143 93.984L36.4176 93.9303L36.2189 93.8175L36.1383 93.7692L36.0739 93.7289L36.0148 93.6913L35.9558 93.6537C35.8591 93.592 35.7624 93.5302 35.6684 93.4631L35.5959 93.4148L35.4616 93.3181L35.3784 93.2563L35.2925 93.1919L35.2119 93.1301C35.0992 93.0442 34.9918 92.9556 34.8844 92.8616L34.7178 92.7166L34.6346 92.6414L34.4654 92.4856L34.3929 92.4159L34.2345 92.2574L34.1593 92.1796L34.0814 92.099C33.9821 91.9916 33.8827 91.8842 33.7861 91.7714L33.7136 91.6854L33.6438 91.6022C33.6223 91.5727 33.5981 91.5458 33.5766 91.519L33.4263 91.3256C33.386 91.2746 33.3484 91.2209 33.3081 91.1672L33.2383 91.0732L33.1765 90.9819C33.0342 90.7752 32.908 90.5603 32.7684 90.3428C32.6556 90.1495 32.5482 89.9535 32.4488 89.7521L32.4005 89.6501L32.3522 89.5507C32.32 89.4809 32.2904 89.4137 32.2609 89.3439C32.2448 89.309 32.2313 89.2741 32.2152 89.2419L32.1723 89.1372C32.1588 89.1023 32.1454 89.0673 32.1293 89.0324L32.089 88.9277L32.0488 88.8203L32.0138 88.7237C31.9628 88.576 31.9145 88.431 31.8688 88.2806L31.8366 88.1732L31.8044 88.0604L31.7802 87.9745C31.7534 87.8751 31.7292 87.7758 31.705 87.6737C31.705 87.6469 31.7051 87.62 31.6863 87.5932C31.6675 87.5663 31.6675 87.4965 31.6567 87.4482L31.6406 87.373C31.5949 87.1501 31.56 86.9272 31.5305 86.699L31.4795 86.3016H63.5194V89.3601C63.5196 89.4667 63.5396 89.5723 63.5785 89.6715C63.6209 89.7787 63.6846 89.8761 63.7659 89.9578C63.8471 90.0395 63.9442 90.1038 64.0511 90.1468C64.1513 90.1857 64.2578 90.2058 64.3653 90.2059H86.0242C86.1317 90.2058 86.2382 90.1857 86.3384 90.1468C86.4453 90.1038 86.5423 90.0395 86.6236 89.9578C86.7048 89.8761 86.7686 89.7787 86.811 89.6715C86.8498 89.5723 86.8699 89.4667 86.87 89.3601V86.3016H118.91L118.859 86.699C118.859 86.7473 118.859 86.793 118.84 86.8413C118.821 86.8896 118.84 86.8977 118.84 86.9272L118.824 87.0373L118.808 87.1286C118.789 87.2333 118.77 87.3354 118.749 87.4401C118.749 87.4697 118.749 87.5019 118.73 87.5314C118.714 87.6066 118.695 87.6791 118.679 87.7516C118.663 87.8241 118.663 87.8214 118.652 87.8536C118.641 87.8858 118.633 87.9369 118.62 87.9772C118.607 88.0174 118.62 88.0335 118.598 88.0604C118.577 88.0872 118.564 88.1812 118.545 88.243C118.505 88.3853 118.459 88.5115 118.411 88.6646C118.376 88.7639 118.338 88.8606 118.3 88.9599C118.3 88.9922 118.276 89.0244 118.263 89.0566C118.225 89.1533 118.185 89.25 118.142 89.3439C118.142 89.3762 118.115 89.4084 118.099 89.4406C118.083 89.4728 118.072 89.5024 118.056 89.5346C118.04 89.5668 118.029 89.5964 118.013 89.6286L117.967 89.7226L117.922 89.8165C117.905 89.8461 117.89 89.8766 117.876 89.9078C117.796 90.0582 117.715 90.2086 117.629 90.3563L117.524 90.5281C117.489 90.5845 117.455 90.6409 117.417 90.6973C117.379 90.7537 117.382 90.7564 117.363 90.7832L117.248 90.9551C117.226 90.9819 117.208 91.0115 117.189 91.0383L117.138 91.1081C117.055 91.229 116.966 91.3444 116.869 91.4599L116.813 91.5297L116.748 91.6103C116.727 91.6375 116.705 91.6634 116.681 91.6881L116.617 91.766L116.55 91.8439C116.504 91.8949 116.461 91.9459 116.415 91.9943C116.295 92.1285 116.168 92.2628 116.04 92.3836L115.911 92.5071C115.86 92.5582 115.809 92.6038 115.755 92.6521L115.61 92.781L115.454 92.9153L115.374 92.9797C115.132 93.1785 114.879 93.3637 114.622 93.5383L114.53 93.5973C114.281 93.7611 114.02 93.9142 113.754 94.0538L113.663 94.1022C113.572 94.1505 113.48 94.1961 113.395 94.2391L113.209 94.325L112.925 94.4486L112.828 94.4888C112.616 94.5721 112.401 94.65 112.181 94.7198L112.116 94.7412L112.047 94.7627C112.017 94.7627 111.99 94.7815 111.961 94.7869L111.877 94.8137L111.77 94.8433H111.714L111.644 94.8621C111.475 94.9051 111.305 94.9453 111.134 94.9802L111.029 94.999C110.908 95.0232 110.785 95.0447 110.661 95.0608H110.575H110.465L110.341 95.0769H110.256L110.054 95.0957H109.984H109.963H109.872H109.732H109.657H109.565H40.9771V95.1521Z" fill="#757575"/>
    <path d="M113.236 43.0119C112.717 42.3139 112.041 41.7469 111.264 41.3562C110.486 40.9655 109.628 40.7619 108.758 40.7617H41.6111C40.1286 40.7639 38.7074 41.3539 37.6594 42.4025C36.6113 43.4511 36.0219 44.8725 36.0205 46.3551V86.2092H63.5681V89.641C63.6111 89.7479 63.6754 89.8449 63.7571 89.9262C63.8388 90.0074 63.9362 90.0712 64.0434 90.1136H86.3306C86.4372 90.0707 86.534 90.0068 86.6152 89.9256C86.6965 89.8443 86.7604 89.7475 86.8032 89.641V86.2092H114.351V46.3551C114.352 45.1493 113.961 43.9759 113.236 43.0119ZM112.716 84.5766H86.0138C85.9069 84.5763 85.801 84.5973 85.7023 84.6384C85.5957 84.6812 85.4989 84.7451 85.4176 84.8264C85.3364 84.9076 85.2725 85.0044 85.2297 85.111C85.1886 85.2097 85.1676 85.3156 85.1679 85.4225V88.4809H65.2007V85.4225C65.2007 85.2528 65.1495 85.0872 65.0536 84.9472C64.9578 84.8073 64.8218 84.6996 64.6636 84.6384C64.5649 84.5973 64.4591 84.5763 64.3522 84.5766H37.6504V46.3551C37.6511 45.3053 38.0683 44.2987 38.8103 43.5562C39.5524 42.8136 40.5587 42.3958 41.6084 42.3944H108.846C108.945 42.3944 109.042 42.3943 109.139 42.4105H109.193H109.265H109.356H109.429H109.45H109.483H109.552L109.636 42.4293L109.848 42.483L109.923 42.5071L110.011 42.5367L110.103 42.5689L110.194 42.6038L110.283 42.6387L110.379 42.6817C110.465 42.7193 110.549 42.7622 110.629 42.8052L110.696 42.8428L110.726 42.8616C110.745 42.8713 110.764 42.8821 110.782 42.8938C110.871 42.9475 110.959 43.0066 111.051 43.0657L111.088 43.0952L111.145 43.1382L111.172 43.157L111.255 43.2241C111.284 43.2459 111.311 43.2692 111.338 43.2939L111.421 43.3664L111.502 43.4443C111.558 43.498 111.615 43.557 111.666 43.6134H111.679L111.735 43.6779L111.762 43.7101L111.816 43.7773V43.7934L111.88 43.8793L111.95 43.9733L112.009 44.0592C112.018 44.075 112.028 44.0903 112.039 44.1048C112.055 44.1317 112.071 44.1612 112.09 44.1881L112.122 44.2445C112.138 44.2713 112.154 44.2982 112.168 44.325C112.181 44.3519 112.2 44.3814 112.213 44.411C112.227 44.4405 112.243 44.4673 112.256 44.4969L112.302 44.5935L112.334 44.6714C112.348 44.7012 112.361 44.7316 112.372 44.7627L112.407 44.8514C112.407 44.8782 112.428 44.9077 112.436 44.9346C112.444 44.9614 112.436 44.9695 112.455 44.9856C112.461 45.0084 112.468 45.0308 112.477 45.0527L112.517 45.1977L112.533 45.2622L112.549 45.3293L112.565 45.4099L112.581 45.4851C112.581 45.5065 112.581 45.5253 112.581 45.5441C112.594 45.6211 112.605 45.699 112.613 45.7777C112.613 45.7939 112.613 45.8073 112.613 45.8234C112.613 45.8395 112.613 45.8798 112.613 45.9093V46.0033C112.613 46.0328 112.613 46.0624 112.613 46.0919L112.716 84.5766Z" fill="#757575"/>
    <path d="M130.484 95.9716C130.484 96.1853 130.399 96.3902 130.248 96.5413C130.097 96.6923 129.892 96.7772 129.678 96.7772H20.6991C20.4826 96.7772 20.275 96.6912 20.1219 96.5381C19.9688 96.385 19.8828 96.1774 19.8828 95.9609C19.8828 95.7444 19.9688 95.5368 20.1219 95.3837C20.275 95.2306 20.4826 95.1446 20.6991 95.1446H129.668C129.776 95.1431 129.884 95.1636 129.984 95.2048C130.085 95.2459 130.176 95.307 130.252 95.3842C130.328 95.4615 130.388 95.5533 130.428 95.6542C130.468 95.7552 130.487 95.8632 130.484 95.9716Z" fill="#757575"/>
    <path d="M17.3471 96.7928H13.6308C13.4143 96.7928 13.2066 96.7068 13.0535 96.5537C12.9005 96.4006 12.8145 96.1929 12.8145 95.9764C12.8145 95.7599 12.9005 95.5523 13.0535 95.3992C13.2066 95.2462 13.4143 95.1602 13.6308 95.1602H17.3471C17.5636 95.1602 17.7712 95.2462 17.9243 95.3992C18.0774 95.5523 18.1634 95.7599 18.1634 95.9764C18.1634 96.1929 18.0774 96.4006 17.9243 96.5537C17.7712 96.7068 17.5636 96.7928 17.3471 96.7928Z" fill="#757575"/>
    <path d="M32.5375 92.7928H28.8212C28.6047 92.7928 28.3971 92.7068 28.244 92.5537C28.0909 92.4006 28.0049 92.1929 28.0049 91.9764C28.0049 91.7599 28.0909 91.5523 28.244 91.3992C28.3971 91.2462 28.6047 91.1602 28.8212 91.1602H32.5375C32.754 91.1602 32.9617 91.2462 33.1148 91.3992C33.2678 91.5523 33.3538 91.7599 33.3538 91.9764C33.3538 92.1929 33.2678 92.4006 33.1148 92.5537C32.9617 92.7068 32.754 92.7928 32.5375 92.7928Z" fill="#757575"/>
    <path d="M25.4545 92.7928H21.7382C21.5217 92.7928 21.314 92.7068 21.161 92.5537C21.0079 92.4006 20.9219 92.1929 20.9219 91.9764C20.9219 91.7599 21.0079 91.5523 21.161 91.3992C21.314 91.2462 21.5217 91.1602 21.7382 91.1602H25.4545C25.671 91.1602 25.8786 91.2462 26.0317 91.3992C26.1848 91.5523 26.2708 91.7599 26.2708 91.9764C26.2708 92.1929 26.1848 92.4006 26.0317 92.5537C25.8786 92.7068 25.671 92.7928 25.4545 92.7928Z" fill="#757575"/>
    <path d="M121.547 92.7928H117.831C117.614 92.7928 117.407 92.7068 117.254 92.5537C117.101 92.4006 117.015 92.1929 117.015 91.9764C117.015 91.7599 117.101 91.5523 117.254 91.3992C117.407 91.2462 117.614 91.1602 117.831 91.1602H121.547C121.764 91.1602 121.971 91.2462 122.124 91.3992C122.278 91.5523 122.364 91.7599 122.364 91.9764C122.364 92.1929 122.278 92.4006 122.124 92.5537C121.971 92.7068 121.764 92.7928 121.547 92.7928Z" fill="#757575"/>
    <path d="M128.631 92.7928H124.915C124.698 92.7928 124.491 92.7068 124.338 92.5537C124.185 92.4006 124.099 92.1929 124.099 91.9764C124.099 91.7599 124.185 91.5523 124.338 91.3992C124.491 91.2462 124.698 91.1602 124.915 91.1602H128.631C128.848 91.1602 129.055 91.2462 129.208 91.3992C129.362 91.5523 129.448 91.7599 129.448 91.9764C129.448 92.1929 129.362 92.4006 129.208 92.5537C129.055 92.7068 128.848 92.7928 128.631 92.7928Z" fill="#757575"/>
    <path d="M136.751 96.7928H133.035C132.819 96.7928 132.611 96.7068 132.458 96.5537C132.305 96.4006 132.219 96.1929 132.219 95.9764C132.219 95.7599 132.305 95.5523 132.458 95.3992C132.611 95.2462 132.819 95.1602 133.035 95.1602H136.751C136.968 95.1602 137.175 95.2462 137.329 95.3992C137.482 95.5523 137.568 95.7599 137.568 95.9764C137.568 96.1929 137.482 96.4006 137.329 96.5537C137.175 96.7068 136.968 96.7928 136.751 96.7928Z" fill="#757575"/>
    <g style="mix-blend-mode:multiply">
      <path d="M73.7911 45.0705V40.946H79.081C78.6905 37.3534 77.2777 33.9481 75.0102 31.1342L74.7954 31.349L74.1053 32.0364L71.2751 34.8694L70.6145 34.2088L69.9405 33.5321L68.3589 31.9505L72.0914 28.218C71.5955 27.817 71.0799 27.4429 70.5447 27.0956C68.6159 25.8389 66.4737 24.9453 64.2237 24.4587C63.5823 24.321 62.9344 24.2161 62.2823 24.1445V29.4345H58.1632V24.1445C57.7147 24.1929 57.269 24.2573 56.8206 24.3379C56.501 24.397 56.1815 24.4641 55.8673 24.5366C53.4328 25.1118 51.1365 26.1641 49.1113 27.6326C48.8428 27.8206 48.5958 28.0166 48.346 28.218L50.7439 30.616L51.4179 31.2899L52.0812 31.9505L49.1623 34.8694L48.5018 34.2088L45.4299 31.1342C45.2285 31.3839 45.0325 31.639 44.8445 31.8995C43.376 33.9246 42.3236 36.221 41.7485 38.6555C41.6733 38.9724 41.6088 39.2892 41.5498 39.6088C41.4692 40.0492 41.4048 40.4967 41.3564 40.9514H46.6463V45.0759H41.3564C41.4265 45.7273 41.5313 46.3745 41.6706 47.0146C42.1555 49.2661 43.0492 51.4094 44.3075 53.3384C44.6542 53.8733 45.0288 54.3896 45.4299 54.8851L49.1623 51.1526L50.7439 52.7342L51.4179 53.4082L52.0812 54.0687L48.346 57.8039C51.1589 60.0713 54.5633 61.4841 58.1551 61.8747V56.5875H62.2823V61.8747C65.8741 61.4841 69.2785 60.0713 72.0914 57.8039L70.7488 56.4613L68.367 54.0634L71.2831 51.1472L75.0183 54.8797C77.2862 52.0671 78.6991 48.6625 79.089 45.0705H73.7911ZM64.1888 54.6729H56.2486V59.6084C55.87 59.5198 55.4941 59.415 55.1208 59.2969C53.7768 58.8756 52.4905 58.2884 51.2917 57.5488L51.6918 57.1487L53.4291 55.4114L54.7718 54.0687L53.4291 52.7261L50.4996 49.7965L49.157 48.4539L48.483 49.1279L47.809 49.8019L45.6608 51.9501C45.4908 51.6762 45.3297 51.3969 45.1775 51.1123C45.0191 50.8196 44.866 50.5189 44.7264 50.2154C44.2428 49.1824 43.8659 48.1027 43.6013 46.9932H48.5367V39.0556H43.6013C43.6308 38.9267 43.663 38.7871 43.6979 38.6716C43.7812 38.3521 43.8752 38.0352 43.9665 37.7184C44.3819 36.4488 44.9462 35.2329 45.6474 34.096L46.453 34.9016L47.7956 36.2442L49.1382 37.5868L50.4808 36.2442L53.3996 33.3253L54.7422 31.9827L53.3996 30.6401L52.057 29.2975L51.2514 28.4919C52.3886 27.7904 53.6044 27.2253 54.8738 26.8083C55.188 26.7063 55.5075 26.6123 55.8271 26.5263L56.2083 26.4297V31.3651H64.1485V26.4055C65.2574 26.6722 66.3369 27.0491 67.3708 27.5306C67.6742 27.6729 67.9723 27.8233 68.2676 27.9817C68.563 28.1402 68.8315 28.2959 69.1054 28.4678L66.9572 30.616L66.2806 31.2899L65.6066 31.9639L66.9492 33.3065L68.5308 34.8908L69.8734 36.2334L71.216 37.5761L72.5586 36.2334L74.2959 34.4961L74.696 34.096C75.4345 35.2953 76.0217 36.5815 76.4441 37.9251C76.5622 38.2984 76.6643 38.6743 76.7556 39.0556H71.8846V46.9932H76.82C76.4017 48.7446 75.7064 50.4179 74.7605 51.9501L74.116 51.3083L73.4232 50.6155L71.2885 48.4674H71.2751L70.6011 49.1414L69.9271 49.8153L67.0244 52.7208L66.3504 53.3947L65.6764 54.0687L67.8246 56.2169L68.5174 56.907L69.1591 57.5515C67.6274 58.4983 65.9539 59.1937 64.2022 59.6111L64.1888 54.6729Z" fill="#DBDBDB"/>
    </g>
    <path d="M55.8675 59.4335C53.1973 58.9804 50.6645 57.9283 48.459 56.3563L52.0921 52.7205L47.828 48.4536L44.2003 52.0975C42.6276 49.8924 41.5754 47.3594 41.123 44.6889H46.2733V38.6552H41.123C41.5743 35.982 42.6264 33.4461 44.2003 31.2386L47.8361 34.8744L52.1002 30.6076L48.4671 26.9718C50.6731 25.4008 53.2057 24.3488 55.8756 23.8945V29.0448H61.9066V23.8945C64.5771 24.3492 67.1106 25.4011 69.3178 26.9718L65.682 30.6157L69.9488 34.8825L73.5819 31.2467C75.1546 33.4518 76.2067 35.9848 76.6591 38.6552H71.5116V44.6889H76.6591C76.2067 47.3594 75.1546 49.8924 73.5819 52.0975L69.9488 48.4617L65.682 52.7205L69.3178 56.3563C67.1111 57.9279 64.5774 58.9799 61.9066 59.4335V54.2832H55.8756L55.8675 59.4335Z" fill="#FFBCB0"/>
    <path d="M64.4639 42.8897C65.1289 39.8138 63.1745 36.7812 60.0987 36.1162C57.0228 35.4511 53.9903 37.4055 53.3252 40.4814C52.6602 43.5573 54.6146 46.5899 57.6904 47.2549C60.7663 47.9199 63.7989 45.9655 64.4639 42.8897Z" fill="white"/>
    <g style="mix-blend-mode:multiply">
      <path d="M64.2042 37.6846C63.2875 36.994 62.2065 36.5544 61.0679 36.4092C60.7865 36.3736 60.5031 36.3556 60.2194 36.3555C58.4556 36.3569 56.7643 37.058 55.5168 38.305C54.2694 39.552 53.5676 41.2429 53.5654 43.0068C53.5651 43.2905 53.584 43.574 53.6218 43.8553C53.8303 45.4583 54.6146 46.9309 55.8284 47.9985C57.0422 49.0661 58.6029 49.6559 60.2194 49.6581C61.616 49.6588 62.9773 49.2198 64.1103 48.4032C65.2433 47.5867 66.0904 46.4341 66.5314 45.1089C66.9724 43.7838 66.9849 42.3535 66.5672 41.0209C66.1495 39.6882 65.3227 38.5209 64.2042 37.6846ZM60.2194 47.7516C59.5512 47.7523 58.8904 47.6114 58.2806 47.338C57.4605 46.9682 56.7616 46.3744 56.2641 45.6249C55.6588 44.7129 55.3876 43.6195 55.4965 42.5304C55.6055 41.4412 56.0879 40.4233 56.8619 39.6493C57.6359 38.8753 58.6538 38.3928 59.743 38.2839C60.8322 38.1749 61.9255 38.4461 62.8375 39.0514C63.5864 39.5488 64.1794 40.2479 64.548 41.068C64.8234 41.6772 64.9653 42.3382 64.9641 43.0068C64.9634 44.2652 64.4634 45.4719 63.5738 46.362C62.6842 47.2521 61.4778 47.7528 60.2194 47.7543V47.7516Z" fill="#DBDBDB"/>
    </g>
    <path d="M72.4564 43.7348V39.6077H77.7463C77.3504 36.0167 75.9372 32.6135 73.6728 29.7985L69.9404 33.531L68.3588 31.9494L67.0162 30.6068L70.5392 27.0864L70.7513 26.8716C67.9374 24.6041 64.5322 23.1913 60.9395 22.8008V28.0907H56.8204V22.8008C53.2285 23.1907 49.8239 24.6036 47.0113 26.8716L48.3539 28.2142L50.7519 30.6121L47.8357 33.531L45.4378 31.1304L44.0952 29.7878C41.8278 32.6007 40.415 36.0051 40.0244 39.5969H45.3143V43.7241H40.0244C40.415 47.3159 41.8278 50.7203 44.0952 53.5332L44.31 53.3211L47.8303 49.8008L49.1729 51.1434L50.7545 52.725L47.0221 56.4602C47.5162 56.8576 48.0344 57.2335 48.5688 57.5826C51.0522 59.2034 53.883 60.2154 56.8312 60.5363V55.2464H60.9557V60.5363C61.4068 60.488 61.8543 60.4235 62.2983 60.343C65.4021 59.777 68.3152 58.4441 70.7728 56.4655L68.3668 54.0622L67.0242 52.7196L69.9431 49.8035L71.2857 51.1461L73.6836 53.544C75.665 51.0878 76.999 48.1742 77.5637 45.0694C77.6442 44.629 77.7087 44.1833 77.757 43.7268L72.4564 43.7348ZM71.2884 48.4608H71.2749L69.9323 47.1182L65.6816 51.377L64.339 52.7196L65.6816 54.0622L67.8298 56.2104C66.6931 56.9122 65.4772 57.4764 64.2074 57.8914C63.7671 58.0364 63.3195 58.1626 62.8648 58.27V53.3372H54.9139V58.2727C53.8045 58.0077 52.7249 57.6307 51.6917 57.1476C51.096 56.8696 50.5168 56.5576 49.957 56.2131L52.1052 54.0649L53.4478 52.7223L52.1052 51.3797L50.5236 49.7981L49.181 48.4555L47.8384 47.1129L46.4958 48.4555L44.7584 50.1928L44.3583 50.5929C43.4119 49.061 42.7167 47.3875 42.2988 45.636H47.2342V37.6958H42.2988C42.7167 35.9442 43.4119 34.2708 44.3583 32.7388L45.701 34.0814L46.5065 34.887L47.8491 36.2296L52.1132 31.9628L53.4558 30.6202L52.1132 29.2776L51.3077 28.472L49.9651 27.1294C51.4979 26.1847 53.1711 25.4896 54.922 25.0698V30.0053H62.8595V25.0618C64.6112 25.4815 66.2853 26.1767 67.819 27.1213L67.419 27.5214L65.6816 29.2588L64.339 30.6014L69.9538 36.2162L71.2964 34.8736L73.4311 32.7254C73.7776 33.2846 74.0905 33.8638 74.3683 34.4601C74.851 35.4935 75.228 36.5731 75.4934 37.6823H70.558V45.6225H75.4934C75.386 46.0737 75.2598 46.5167 75.1148 46.9652C74.6994 48.2352 74.1342 49.4513 73.4311 50.5876L71.2884 48.4608Z" fill="#757575"/>
    <path d="M64.205 37.687C63.2535 36.4265 61.8846 35.5457 60.3431 35.2022C58.8016 34.8587 57.1881 35.0749 55.7915 35.8122C54.3948 36.5494 53.306 37.7596 52.72 39.2262C52.134 40.6927 52.0889 42.32 52.5928 43.8167C53.0968 45.3135 54.1169 46.5821 55.4706 47.3955C56.8243 48.2089 58.4233 48.5141 59.9815 48.2565C61.5396 47.9988 62.9552 47.1952 63.9751 45.9893C64.9949 44.7833 65.5523 43.2539 65.5476 41.6746C65.5434 40.2351 65.0723 38.8359 64.205 37.687ZM56.2649 45.6272C55.3211 44.9931 54.6368 44.0408 54.3368 42.944C54.0368 41.8473 54.141 40.6793 54.6306 39.653C55.1201 38.6267 55.9622 37.8107 57.0034 37.3537C58.0445 36.8967 59.2153 36.8292 60.302 37.1636C61.3887 37.498 62.3191 38.2119 62.9232 39.1752C63.5274 40.1384 63.7651 41.2868 63.593 42.4107C63.4209 43.5346 62.8506 44.5593 61.9859 45.2976C61.1212 46.036 60.02 46.4389 58.8829 46.4328C57.9503 46.4285 57.0396 46.1492 56.2649 45.6299V45.6272Z" fill="#757575"/>
  </g>
  <defs>
    <clipPath id="clip0_11492_115964">
      <rect width="147.859" height="130" fill="white" transform="translate(0.141602 0.00390625)"/>
    </clipPath>
  </defs>
</svg>
