<svg width="148" height="131" viewBox="0 0 148 131" fill="none" xmlns="http://www.w3.org/2000/svg">
  <g clip-path="url(#clip0_11492_115912)">
    <path d="M3.58148 54.7291C5.50549 56.6521 8.03646 57.8488 10.7435 58.1156C13.4506 58.3825 16.1665 57.7029 18.4289 56.1926L10.056 64.5629C7.99054 66.6267 6.76676 69.3851 6.62284 72.3014C6.47892 75.2177 7.42518 78.0832 9.27744 80.3403C11.1297 82.5975 13.7555 84.0847 16.6438 84.5126C19.5321 84.9406 22.4763 84.2786 24.9035 82.6556L20.5102 87.0488C18.449 89.1138 17.2289 91.8712 17.0869 94.7854C16.9449 97.6996 17.8912 100.563 19.7419 102.818C21.5926 105.074 24.2157 106.561 27.1015 106.991C29.9873 107.421 32.9299 106.762 35.3577 105.144L34.2971 106.205C33.203 107.296 32.3346 108.593 31.7414 110.02C31.1483 111.447 30.842 112.977 30.8402 114.522C30.8383 116.068 31.1409 117.599 31.7306 119.027C32.3204 120.456 33.1857 121.754 34.2773 122.848C35.3688 123.943 36.6651 124.811 38.0923 125.404C39.5195 125.997 41.0495 126.304 42.595 126.305C44.1405 126.307 45.6713 126.005 47.0998 125.415C48.5284 124.825 49.8268 123.96 50.921 122.868L62.0566 111.733C60.4383 114.16 59.7802 117.103 60.21 119.989C60.6399 122.875 62.127 125.498 64.3825 127.348C66.6381 129.199 69.5011 130.145 72.4153 130.003C75.3295 129.861 78.0869 128.641 80.1519 126.58L97.0833 109.646C95.4603 112.073 94.7983 115.017 95.2262 117.906C95.6542 120.794 97.1414 123.42 99.3985 125.272C101.656 127.124 104.521 128.071 107.437 127.927C110.354 127.783 113.112 126.559 115.176 124.494L141.535 98.134C143.601 96.0703 144.825 93.3118 144.969 90.3955C145.113 87.4792 144.166 84.6137 142.314 82.3566C140.462 80.0995 137.836 78.6122 134.948 78.1843C132.059 77.7563 129.115 78.4183 126.688 80.0414L132.205 74.5213C134.263 72.4556 135.481 69.6991 135.621 66.7866C135.762 63.8741 134.815 61.0133 132.965 58.7592C131.116 56.5051 128.494 55.0186 125.611 54.5879C122.727 54.1573 119.786 54.8133 117.358 56.4286L128.494 45.293C130.559 43.2293 131.783 40.4708 131.927 37.5545C132.071 34.6382 131.124 31.7727 129.272 29.5156C127.42 27.2585 124.794 25.7712 121.906 25.3433C119.018 24.9153 116.073 25.5773 113.646 27.2004L120.741 20.1028C122.947 17.8976 124.186 14.9066 124.186 11.7878C124.186 8.66898 122.948 5.6778 120.742 3.47229C118.537 1.26678 115.546 0.0275924 112.427 0.0273438C109.309 0.0270952 106.317 1.2658 104.112 3.47096L88.3021 19.2808C89.9251 16.8537 90.5871 13.9095 90.1592 11.0211C89.7312 8.13284 88.244 5.50706 85.9868 3.65479C83.7297 1.80253 80.8642 0.856283 77.9479 1.0002C75.0316 1.14412 72.2732 2.3679 70.2094 4.4334L48.0204 26.6224C49.6435 24.1952 50.3054 21.251 49.8775 18.3627C49.4495 15.4744 47.9623 12.8486 45.7052 10.9963C43.4481 9.14406 40.5825 8.19782 37.6663 8.34173C34.75 8.48565 31.9915 9.70943 29.9277 11.7749L3.56823 38.1344C1.36292 40.3401 0.124023 43.3313 0.124023 46.4503C0.124023 49.5693 1.36292 52.5606 3.56823 54.7662L3.58148 54.7291Z" fill="white"/>
    <path d="M144.643 104.871L143.829 105.685C143.684 105.839 143.604 106.044 143.607 106.256C143.609 106.468 143.695 106.671 143.845 106.82C143.995 106.97 144.197 107.056 144.409 107.059C144.621 107.062 144.826 106.982 144.98 106.836L145.794 106.022L146.608 106.836C146.683 106.915 146.772 106.978 146.872 107.022C146.972 107.066 147.079 107.089 147.188 107.09C147.297 107.092 147.405 107.072 147.505 107.031C147.606 106.99 147.698 106.929 147.775 106.852C147.851 106.775 147.912 106.684 147.953 106.583C147.994 106.482 148.014 106.374 148.013 106.265C148.011 106.157 147.988 106.049 147.944 105.95C147.901 105.85 147.838 105.76 147.759 105.685L146.945 104.871L147.759 104.057C147.838 103.983 147.901 103.893 147.944 103.793C147.988 103.694 148.011 103.586 148.013 103.477C148.014 103.369 147.994 103.261 147.953 103.16C147.912 103.059 147.851 102.968 147.775 102.891C147.698 102.814 147.606 102.753 147.505 102.712C147.405 102.671 147.297 102.651 147.188 102.652C147.079 102.654 146.972 102.677 146.872 102.721C146.772 102.765 146.683 102.828 146.608 102.907L145.794 103.718L144.98 102.907C144.826 102.761 144.621 102.681 144.409 102.684C144.197 102.687 143.995 102.772 143.845 102.922C143.695 103.072 143.609 103.275 143.607 103.487C143.604 103.699 143.684 103.903 143.829 104.057L144.643 104.871Z" fill="white"/>
    <path d="M28.3688 122.395L27.5549 123.209C27.4091 123.363 27.3292 123.568 27.3321 123.78C27.335 123.991 27.4205 124.194 27.5704 124.344C27.7204 124.494 27.9228 124.579 28.1348 124.582C28.3468 124.585 28.5516 124.505 28.7055 124.359L29.5195 123.546L30.3335 124.359C30.4082 124.438 30.4981 124.502 30.5977 124.545C30.6973 124.589 30.8046 124.612 30.9134 124.614C31.0222 124.615 31.1301 124.595 31.2309 124.554C31.3317 124.513 31.4232 124.452 31.5002 124.375C31.5771 124.299 31.6378 124.207 31.6787 124.106C31.7196 124.005 31.74 123.898 31.7385 123.789C31.737 123.68 31.7137 123.573 31.67 123.473C31.6263 123.373 31.5631 123.284 31.4841 123.209L30.6728 122.395L31.4841 121.581C31.5631 121.506 31.6263 121.416 31.67 121.317C31.7137 121.217 31.737 121.11 31.7385 121.001C31.74 120.892 31.7196 120.784 31.6787 120.683C31.6378 120.583 31.5771 120.491 31.5002 120.414C31.4232 120.337 31.3317 120.277 31.2309 120.236C31.1301 120.195 31.0222 120.174 30.9134 120.176C30.8046 120.177 30.6973 120.201 30.5977 120.244C30.4981 120.288 30.4082 120.351 30.3335 120.43L29.5195 121.244L28.7055 120.43C28.5516 120.284 28.3468 120.205 28.1348 120.207C27.9228 120.21 27.7204 120.296 27.5704 120.446C27.4205 120.596 27.335 120.798 27.3321 121.01C27.3292 121.222 27.4091 121.427 27.5549 121.581L28.3688 122.395Z" fill="white"/>
    <path d="M7.55091 50.2703L6.73697 51.0843C6.59679 51.2397 6.52163 51.443 6.52702 51.6522C6.53241 51.8614 6.61794 52.0606 6.76594 52.2086C6.91393 52.3566 7.11309 52.4421 7.32232 52.4475C7.53155 52.4529 7.73487 52.3778 7.89029 52.2376L8.70158 51.4236L9.51556 52.2376C9.67098 52.3778 9.8743 52.4529 10.0835 52.4475C10.2928 52.4421 10.4919 52.3566 10.6399 52.2086C10.7879 52.0606 10.8734 51.8614 10.8788 51.6522C10.8842 51.443 10.8091 51.2397 10.6689 51.0843L9.85494 50.2703L10.6689 49.4563C10.8215 49.3034 10.907 49.0961 10.9068 48.8801C10.9065 48.664 10.8205 48.4569 10.6676 48.3043C10.5146 48.1517 10.3073 48.0662 10.0913 48.0664C9.87526 48.0667 9.66815 48.1527 9.51556 48.3057L8.70158 49.1196L7.89029 48.3057C7.81474 48.2299 7.72501 48.1698 7.62623 48.1288C7.52744 48.0877 7.42153 48.0665 7.31455 48.0664C7.20758 48.0663 7.10163 48.0872 7.00275 48.1281C6.90387 48.1689 6.81403 48.2288 6.7383 48.3043C6.66257 48.3799 6.60244 48.4696 6.56139 48.5684C6.52034 48.6672 6.49915 48.7731 6.49902 48.8801C6.4989 48.987 6.51986 49.093 6.56068 49.1919C6.6015 49.2907 6.66142 49.3806 6.73697 49.4563L7.55091 50.2703Z" fill="white"/>
    <path d="M105.489 8.45181L104.675 9.26577C104.599 9.34149 104.539 9.43136 104.499 9.53024C104.458 9.62912 104.437 9.73507 104.437 9.84204C104.437 9.94902 104.458 10.0549 104.499 10.1537C104.54 10.2525 104.601 10.3422 104.676 10.4178C104.752 10.4933 104.842 10.5532 104.941 10.594C105.04 10.6349 105.146 10.6558 105.253 10.6557C105.36 10.6556 105.465 10.6344 105.564 10.5933C105.663 10.5523 105.753 10.4922 105.828 10.4164L106.642 9.60249L107.456 10.4164C107.61 10.5622 107.815 10.6421 108.027 10.6392C108.239 10.6363 108.441 10.5508 108.591 10.4009C108.741 10.251 108.827 10.0485 108.83 9.83648C108.833 9.62449 108.753 9.41974 108.607 9.26577L107.793 8.45181L108.607 7.63785C108.683 7.5623 108.743 7.47256 108.784 7.37378C108.825 7.275 108.846 7.1691 108.846 7.06212C108.846 6.95515 108.825 6.8492 108.784 6.75032C108.744 6.65144 108.684 6.56158 108.608 6.48585C108.533 6.41012 108.443 6.35001 108.344 6.30896C108.245 6.26791 108.139 6.24672 108.032 6.2466C107.925 6.24647 107.82 6.26742 107.721 6.30824C107.622 6.34907 107.532 6.40897 107.456 6.48452L106.642 7.29848L105.828 6.48452C105.754 6.40226 105.664 6.33595 105.563 6.28964C105.463 6.24332 105.354 6.21797 105.243 6.21511C105.132 6.21226 105.022 6.23197 104.919 6.27304C104.816 6.31412 104.723 6.37569 104.644 6.45402C104.566 6.53236 104.505 6.62581 104.463 6.72869C104.422 6.83158 104.403 6.94174 104.406 7.05248C104.408 7.16323 104.434 7.27223 104.48 7.37286C104.526 7.4735 104.593 7.56365 104.675 7.63785L105.489 8.45181Z" fill="white"/>
    <path d="M90.5903 123.535C91.0622 123.535 91.5236 123.675 91.916 123.937C92.3084 124.2 92.6142 124.572 92.7948 125.008C92.9754 125.444 93.0227 125.924 92.9306 126.387C92.8386 126.85 92.6113 127.275 92.2776 127.609C91.9439 127.942 91.5187 128.17 91.0558 128.262C90.5929 128.354 90.1131 128.307 89.6771 128.126C89.2411 127.945 88.8684 127.639 88.6062 127.247C88.344 126.855 88.2041 126.393 88.2041 125.921C88.2041 125.288 88.4555 124.682 88.903 124.234C89.3505 123.787 89.9574 123.535 90.5903 123.535ZM90.5903 126.664C90.7387 126.664 90.8838 126.62 91.0072 126.537C91.1305 126.455 91.2267 126.338 91.2835 126.201C91.3403 126.063 91.3551 125.913 91.3262 125.767C91.2972 125.621 91.2258 125.488 91.1209 125.383C91.0159 125.278 90.8822 125.206 90.7367 125.177C90.5911 125.149 90.4403 125.163 90.3032 125.22C90.1661 125.277 90.0488 125.373 89.9664 125.497C89.884 125.62 89.84 125.765 89.84 125.913C89.84 126.012 89.8594 126.109 89.8971 126.201C89.9348 126.292 89.99 126.374 90.0597 126.444C90.1294 126.514 90.2121 126.569 90.3032 126.607C90.3942 126.644 90.4918 126.664 90.5903 126.664Z" fill="white"/>
    <path d="M135.427 47.7227C135.899 47.7227 136.361 47.8626 136.753 48.1248C137.145 48.387 137.451 48.7597 137.632 49.1957C137.812 49.6317 137.86 50.1115 137.768 50.5744C137.675 51.0373 137.448 51.4624 137.114 51.7962C136.781 52.1299 136.356 52.3571 135.893 52.4492C135.43 52.5413 134.95 52.494 134.514 52.3134C134.078 52.1328 133.705 51.827 133.443 51.4346C133.181 51.0422 133.041 50.5808 133.041 50.1089C133.041 49.476 133.292 48.8691 133.74 48.4216C134.187 47.9741 134.794 47.7227 135.427 47.7227ZM135.427 50.8539C135.576 50.8539 135.721 50.8099 135.844 50.7274C135.967 50.645 136.064 50.5278 136.12 50.3907C136.177 50.2536 136.192 50.1027 136.163 49.9572C136.134 49.8116 136.063 49.6779 135.958 49.573C135.853 49.4681 135.719 49.3966 135.574 49.3676C135.428 49.3387 135.277 49.3536 135.14 49.4103C135.003 49.4671 134.886 49.5633 134.803 49.6867C134.721 49.8101 134.677 49.9552 134.677 50.1036C134.677 50.3026 134.756 50.4934 134.897 50.6341C135.037 50.7748 135.228 50.8539 135.427 50.8539Z" fill="white"/>
    <path d="M35.8383 9.54297C36.3103 9.54297 36.7716 9.68292 37.164 9.94511C37.5565 10.2073 37.8623 10.58 38.0429 11.016C38.2235 11.452 38.2708 11.9318 38.1787 12.3947C38.0866 12.8576 37.8593 13.2827 37.5256 13.6165C37.1919 13.9502 36.7667 14.1774 36.3038 14.2695C35.841 14.3616 35.3612 14.3143 34.9252 14.1337C34.4892 13.9531 34.1165 13.6473 33.8543 13.2549C33.5921 12.8625 33.4521 12.4011 33.4521 11.9292C33.4521 11.2963 33.7035 10.6894 34.151 10.2419C34.5985 9.79437 35.2055 9.54297 35.8383 9.54297ZM35.8383 12.6715C35.9867 12.6715 36.1318 12.6275 36.2552 12.5451C36.3786 12.4626 36.4747 12.3455 36.5315 12.2083C36.5883 12.0712 36.6032 11.9204 36.5743 11.7748C36.5453 11.6293 36.4738 11.4956 36.3689 11.3907C36.264 11.2857 36.1302 11.2143 35.9847 11.1853C35.8392 11.1564 35.6883 11.1712 35.5512 11.228C35.4141 11.2848 35.2969 11.381 35.2144 11.5044C35.132 11.6277 35.088 11.7728 35.088 11.9212C35.088 12.1202 35.1671 12.3111 35.3078 12.4518C35.4485 12.5925 35.6393 12.6715 35.8383 12.6715Z" fill="white"/>
    <path d="M8.1235 83.8242C8.59545 83.8242 9.05679 83.9642 9.4492 84.2264C9.84161 84.4886 10.1475 84.8612 10.3281 85.2973C10.5087 85.7333 10.5559 86.2131 10.4638 86.6759C10.3718 87.1388 10.1445 87.564 9.81078 87.8977C9.47706 88.2314 9.05188 88.4587 8.58901 88.5508C8.12613 88.6428 7.64635 88.5956 7.21033 88.415C6.77431 88.2344 6.40164 87.9285 6.13944 87.5361C5.87724 87.1437 5.7373 86.6824 5.7373 86.2104C5.7373 85.5776 5.98869 84.9706 6.43619 84.5231C6.88369 84.0756 7.49064 83.8242 8.1235 83.8242ZM8.1235 86.9554C8.2719 86.9554 8.41697 86.9114 8.54036 86.829C8.66375 86.7465 8.75993 86.6294 8.81672 86.4922C8.87352 86.3551 8.88837 86.2043 8.85941 86.0587C8.83046 85.9132 8.75899 85.7795 8.65406 85.6746C8.54912 85.5696 8.41544 85.4982 8.26989 85.4692C8.12434 85.4403 7.97346 85.4551 7.83636 85.5119C7.69926 85.5687 7.58208 85.6649 7.49964 85.7882C7.41719 85.9116 7.37319 86.0567 7.37319 86.2051C7.37319 86.4041 7.45223 86.595 7.59294 86.7357C7.73366 86.8764 7.9245 86.9554 8.1235 86.9554Z" fill="white"/>
    <path d="M3.58148 54.7291C5.50549 56.6521 8.03646 57.8488 10.7435 58.1156C13.4506 58.3825 16.1665 57.7029 18.4289 56.1926L10.056 64.5629C7.99054 66.6267 6.76676 69.3851 6.62284 72.3014C6.47892 75.2177 7.42518 78.0832 9.27744 80.3403C11.1297 82.5975 13.7555 84.0847 16.6438 84.5126C19.5321 84.9406 22.4763 84.2786 24.9035 82.6556L20.5102 87.0488C18.449 89.1138 17.2289 91.8712 17.0869 94.7854C16.9449 97.6996 17.8912 100.563 19.7419 102.818C21.5926 105.074 24.2157 106.561 27.1015 106.991C29.9873 107.421 32.9299 106.762 35.3577 105.144L34.2971 106.205C33.203 107.296 32.3346 108.593 31.7414 110.02C31.1483 111.447 30.842 112.977 30.8402 114.522C30.8383 116.068 31.1409 117.599 31.7306 119.027C32.3204 120.456 33.1857 121.754 34.2773 122.848C35.3688 123.943 36.6651 124.811 38.0923 125.404C39.5195 125.997 41.0495 126.304 42.595 126.305C44.1405 126.307 45.6713 126.005 47.0998 125.415C48.5284 124.825 49.8268 123.96 50.921 122.868L62.0566 111.733C60.4383 114.16 59.7802 117.103 60.21 119.989C60.6399 122.875 62.127 125.498 64.3825 127.348C66.6381 129.199 69.5011 130.145 72.4153 130.003C75.3295 129.861 78.0869 128.641 80.1519 126.58L97.0833 109.646C95.4603 112.073 94.7983 115.017 95.2262 117.906C95.6542 120.794 97.1414 123.42 99.3985 125.272C101.656 127.124 104.521 128.071 107.437 127.927C110.354 127.783 113.112 126.559 115.176 124.494L141.535 98.134C143.601 96.0703 144.825 93.3118 144.969 90.3955C145.113 87.4792 144.166 84.6137 142.314 82.3566C140.462 80.0995 137.836 78.6122 134.948 78.1843C132.059 77.7563 129.115 78.4183 126.688 80.0414L132.205 74.5213C134.263 72.4556 135.481 69.6991 135.621 66.7866C135.762 63.8741 134.815 61.0133 132.965 58.7592C131.116 56.5051 128.494 55.0186 125.611 54.5879C122.727 54.1573 119.786 54.8133 117.358 56.4286L128.494 45.293C130.559 43.2293 131.783 40.4708 131.927 37.5545C132.071 34.6382 131.124 31.7727 129.272 29.5156C127.42 27.2585 124.794 25.7712 121.906 25.3433C119.018 24.9153 116.073 25.5773 113.646 27.2004L120.741 20.1028C122.947 17.8976 124.186 14.9066 124.186 11.7878C124.186 8.66898 122.948 5.6778 120.742 3.47229C118.537 1.26678 115.546 0.0275924 112.427 0.0273438C109.309 0.0270952 106.317 1.2658 104.112 3.47096L88.3021 19.2808C89.9251 16.8537 90.5871 13.9095 90.1592 11.0211C89.7312 8.13284 88.244 5.50706 85.9868 3.65479C83.7297 1.80253 80.8642 0.856283 77.9479 1.0002C75.0316 1.14412 72.2732 2.3679 70.2094 4.4334L48.0204 26.6224C49.6435 24.1952 50.3054 21.251 49.8775 18.3627C49.4495 15.4744 47.9623 12.8486 45.7052 10.9963C43.4481 9.14406 40.5825 8.19782 37.6663 8.34173C34.75 8.48565 31.9915 9.70943 29.9277 11.7749L3.56823 38.1344C1.36292 40.3401 0.124023 43.3313 0.124023 46.4503C0.124023 49.5693 1.36292 52.5606 3.56823 54.7662L3.58148 54.7291Z" fill="#F5F5F5"/>
    <path d="M144.643 104.871L143.829 105.685C143.684 105.839 143.604 106.044 143.607 106.256C143.609 106.468 143.695 106.671 143.845 106.82C143.995 106.97 144.197 107.056 144.409 107.059C144.621 107.062 144.826 106.982 144.98 106.836L145.794 106.022L146.608 106.836C146.683 106.915 146.772 106.978 146.872 107.022C146.972 107.066 147.079 107.089 147.188 107.09C147.297 107.092 147.405 107.072 147.505 107.031C147.606 106.99 147.698 106.929 147.775 106.852C147.851 106.775 147.912 106.684 147.953 106.583C147.994 106.482 148.014 106.374 148.013 106.265C148.011 106.157 147.988 106.049 147.944 105.95C147.901 105.85 147.838 105.76 147.759 105.685L146.945 104.871L147.759 104.057C147.838 103.983 147.901 103.893 147.944 103.793C147.988 103.694 148.011 103.586 148.013 103.477C148.014 103.369 147.994 103.261 147.953 103.16C147.912 103.059 147.851 102.968 147.775 102.891C147.698 102.814 147.606 102.753 147.505 102.712C147.405 102.671 147.297 102.651 147.188 102.652C147.079 102.654 146.972 102.677 146.872 102.721C146.772 102.765 146.683 102.828 146.608 102.907L145.794 103.718L144.98 102.907C144.826 102.761 144.621 102.681 144.409 102.684C144.197 102.687 143.995 102.772 143.845 102.922C143.695 103.072 143.609 103.275 143.607 103.487C143.604 103.699 143.684 103.903 143.829 104.057L144.643 104.871Z" fill="#FFBCB0"/>
    <path d="M28.3688 122.395L27.5549 123.209C27.4091 123.363 27.3292 123.568 27.3321 123.78C27.335 123.991 27.4205 124.194 27.5704 124.344C27.7204 124.494 27.9228 124.579 28.1348 124.582C28.3468 124.585 28.5516 124.505 28.7055 124.359L29.5195 123.546L30.3335 124.359C30.4082 124.438 30.4981 124.502 30.5977 124.545C30.6973 124.589 30.8046 124.612 30.9134 124.614C31.0222 124.615 31.1301 124.595 31.2309 124.554C31.3317 124.513 31.4232 124.452 31.5002 124.375C31.5771 124.299 31.6378 124.207 31.6787 124.106C31.7196 124.005 31.74 123.898 31.7385 123.789C31.737 123.68 31.7137 123.573 31.67 123.473C31.6263 123.373 31.5631 123.284 31.4841 123.209L30.6728 122.395L31.4841 121.581C31.5631 121.506 31.6263 121.416 31.67 121.317C31.7137 121.217 31.737 121.11 31.7385 121.001C31.74 120.892 31.7196 120.784 31.6787 120.683C31.6378 120.583 31.5771 120.491 31.5002 120.414C31.4232 120.337 31.3317 120.277 31.2309 120.236C31.1301 120.195 31.0222 120.174 30.9134 120.176C30.8046 120.177 30.6973 120.201 30.5977 120.244C30.4981 120.288 30.4082 120.351 30.3335 120.43L29.5195 121.244L28.7055 120.43C28.5516 120.284 28.3468 120.205 28.1348 120.207C27.9228 120.21 27.7204 120.296 27.5704 120.446C27.4205 120.596 27.335 120.798 27.3321 121.01C27.3292 121.222 27.4091 121.427 27.5549 121.581L28.3688 122.395Z" fill="#FFBCB0"/>
    <path d="M7.55091 50.2703L6.73697 51.0843C6.59679 51.2397 6.52163 51.443 6.52702 51.6522C6.53241 51.8614 6.61794 52.0606 6.76594 52.2086C6.91393 52.3566 7.11309 52.4421 7.32232 52.4475C7.53155 52.4529 7.73487 52.3778 7.89029 52.2376L8.70158 51.4236L9.51556 52.2376C9.67098 52.3778 9.8743 52.4529 10.0835 52.4475C10.2928 52.4421 10.4919 52.3566 10.6399 52.2086C10.7879 52.0606 10.8734 51.8614 10.8788 51.6522C10.8842 51.443 10.8091 51.2397 10.6689 51.0843L9.85494 50.2703L10.6689 49.4563C10.8215 49.3034 10.907 49.0961 10.9068 48.8801C10.9065 48.664 10.8205 48.4569 10.6676 48.3043C10.5146 48.1517 10.3073 48.0662 10.0913 48.0664C9.87526 48.0667 9.66815 48.1527 9.51556 48.3057L8.70158 49.1196L7.89029 48.3057C7.81474 48.2299 7.72501 48.1698 7.62623 48.1288C7.52744 48.0877 7.42153 48.0665 7.31455 48.0664C7.20758 48.0663 7.10163 48.0872 7.00275 48.1281C6.90387 48.1689 6.81403 48.2288 6.7383 48.3043C6.66257 48.3799 6.60244 48.4696 6.56139 48.5684C6.52034 48.6672 6.49915 48.7731 6.49902 48.8801C6.4989 48.987 6.51986 49.093 6.56068 49.1919C6.6015 49.2907 6.66142 49.3806 6.73697 49.4563L7.55091 50.2703Z" fill="#FFBCB0"/>
    <path d="M105.489 8.45181L104.675 9.26577C104.599 9.34149 104.539 9.43136 104.499 9.53024C104.458 9.62912 104.437 9.73507 104.437 9.84204C104.437 9.94902 104.458 10.0549 104.499 10.1537C104.54 10.2525 104.601 10.3422 104.676 10.4178C104.752 10.4933 104.842 10.5532 104.941 10.594C105.04 10.6349 105.146 10.6558 105.253 10.6557C105.36 10.6556 105.465 10.6344 105.564 10.5933C105.663 10.5523 105.753 10.4922 105.828 10.4164L106.642 9.60249L107.456 10.4164C107.61 10.5622 107.815 10.6421 108.027 10.6392C108.239 10.6363 108.441 10.5508 108.591 10.4009C108.741 10.251 108.827 10.0485 108.83 9.83648C108.833 9.62449 108.753 9.41974 108.607 9.26577L107.793 8.45181L108.607 7.63785C108.683 7.5623 108.743 7.47256 108.784 7.37378C108.825 7.275 108.846 7.1691 108.846 7.06212C108.846 6.95515 108.825 6.8492 108.784 6.75032C108.744 6.65144 108.684 6.56158 108.608 6.48585C108.533 6.41012 108.443 6.35001 108.344 6.30896C108.245 6.26791 108.139 6.24672 108.032 6.2466C107.925 6.24647 107.82 6.26742 107.721 6.30824C107.622 6.34907 107.532 6.40897 107.456 6.48452L106.642 7.29848L105.828 6.48452C105.754 6.40226 105.664 6.33595 105.563 6.28964C105.463 6.24332 105.354 6.21797 105.243 6.21511C105.132 6.21226 105.022 6.23197 104.919 6.27304C104.816 6.31412 104.723 6.37569 104.644 6.45402C104.566 6.53236 104.505 6.62581 104.463 6.72869C104.422 6.83158 104.403 6.94174 104.406 7.05248C104.408 7.16323 104.434 7.27223 104.48 7.37286C104.526 7.4735 104.593 7.56365 104.675 7.63785L105.489 8.45181Z" fill="#FFBCB0"/>
    <path d="M90.5903 123.535C91.0622 123.535 91.5236 123.675 91.916 123.937C92.3084 124.2 92.6142 124.572 92.7948 125.008C92.9754 125.444 93.0227 125.924 92.9306 126.387C92.8386 126.85 92.6113 127.275 92.2776 127.609C91.9439 127.942 91.5187 128.17 91.0558 128.262C90.5929 128.354 90.1131 128.307 89.6771 128.126C89.2411 127.945 88.8684 127.639 88.6062 127.247C88.344 126.855 88.2041 126.393 88.2041 125.921C88.2041 125.288 88.4555 124.682 88.903 124.234C89.3505 123.787 89.9574 123.535 90.5903 123.535ZM90.5903 126.664C90.7387 126.664 90.8838 126.62 91.0072 126.537C91.1305 126.455 91.2267 126.338 91.2835 126.201C91.3403 126.063 91.3551 125.913 91.3262 125.767C91.2972 125.621 91.2258 125.488 91.1209 125.383C91.0159 125.278 90.8822 125.206 90.7367 125.177C90.5911 125.149 90.4403 125.163 90.3032 125.22C90.1661 125.277 90.0488 125.373 89.9664 125.497C89.884 125.62 89.84 125.765 89.84 125.913C89.84 126.012 89.8594 126.109 89.8971 126.201C89.9348 126.292 89.99 126.374 90.0597 126.444C90.1294 126.514 90.2121 126.569 90.3032 126.607C90.3942 126.644 90.4918 126.664 90.5903 126.664Z" fill="#FFBCB0"/>
    <path d="M135.427 47.7227C135.899 47.7227 136.361 47.8626 136.753 48.1248C137.145 48.387 137.451 48.7597 137.632 49.1957C137.812 49.6317 137.86 50.1115 137.768 50.5744C137.675 51.0373 137.448 51.4624 137.114 51.7962C136.781 52.1299 136.356 52.3571 135.893 52.4492C135.43 52.5413 134.95 52.494 134.514 52.3134C134.078 52.1328 133.705 51.827 133.443 51.4346C133.181 51.0422 133.041 50.5808 133.041 50.1089C133.041 49.476 133.292 48.8691 133.74 48.4216C134.187 47.9741 134.794 47.7227 135.427 47.7227ZM135.427 50.8539C135.576 50.8539 135.721 50.8099 135.844 50.7274C135.967 50.645 136.064 50.5278 136.12 50.3907C136.177 50.2536 136.192 50.1027 136.163 49.9572C136.134 49.8116 136.063 49.6779 135.958 49.573C135.853 49.4681 135.719 49.3966 135.574 49.3676C135.428 49.3387 135.277 49.3536 135.14 49.4103C135.003 49.4671 134.886 49.5633 134.803 49.6867C134.721 49.8101 134.677 49.9552 134.677 50.1036C134.677 50.3026 134.756 50.4934 134.897 50.6341C135.037 50.7748 135.228 50.8539 135.427 50.8539Z" fill="#FFBCB0"/>
    <path d="M35.8383 9.54297C36.3103 9.54297 36.7716 9.68292 37.164 9.94511C37.5565 10.2073 37.8623 10.58 38.0429 11.016C38.2235 11.452 38.2708 11.9318 38.1787 12.3947C38.0866 12.8576 37.8593 13.2827 37.5256 13.6165C37.1919 13.9502 36.7667 14.1774 36.3038 14.2695C35.841 14.3616 35.3612 14.3143 34.9252 14.1337C34.4892 13.9531 34.1165 13.6473 33.8543 13.2549C33.5921 12.8625 33.4521 12.4011 33.4521 11.9292C33.4521 11.2963 33.7035 10.6894 34.151 10.2419C34.5985 9.79437 35.2055 9.54297 35.8383 9.54297ZM35.8383 12.6715C35.9867 12.6715 36.1318 12.6275 36.2552 12.5451C36.3786 12.4626 36.4747 12.3455 36.5315 12.2083C36.5883 12.0712 36.6032 11.9204 36.5743 11.7748C36.5453 11.6293 36.4738 11.4956 36.3689 11.3907C36.264 11.2857 36.1302 11.2143 35.9847 11.1853C35.8392 11.1564 35.6883 11.1712 35.5512 11.228C35.4141 11.2848 35.2969 11.381 35.2144 11.5044C35.132 11.6277 35.088 11.7728 35.088 11.9212C35.088 12.1202 35.1671 12.3111 35.3078 12.4518C35.4485 12.5925 35.6393 12.6715 35.8383 12.6715Z" fill="#FFBCB0"/>
    <path d="M8.1235 83.8242C8.59545 83.8242 9.05679 83.9642 9.4492 84.2264C9.84161 84.4886 10.1475 84.8612 10.3281 85.2973C10.5087 85.7333 10.5559 86.2131 10.4638 86.6759C10.3718 87.1388 10.1445 87.564 9.81078 87.8977C9.47706 88.2314 9.05188 88.4587 8.58901 88.5508C8.12613 88.6428 7.64635 88.5956 7.21033 88.415C6.77431 88.2344 6.40164 87.9285 6.13944 87.5361C5.87724 87.1437 5.7373 86.6824 5.7373 86.2104C5.7373 85.5776 5.98869 84.9706 6.43619 84.5231C6.88369 84.0756 7.49064 83.8242 8.1235 83.8242ZM8.1235 86.9554C8.2719 86.9554 8.41697 86.9114 8.54036 86.829C8.66375 86.7465 8.75993 86.6294 8.81672 86.4922C8.87352 86.3551 8.88837 86.2043 8.85941 86.0587C8.83046 85.9132 8.75899 85.7795 8.65406 85.6746C8.54912 85.5696 8.41544 85.4982 8.26989 85.4692C8.12434 85.4403 7.97346 85.4551 7.83636 85.5119C7.69926 85.5687 7.58208 85.6649 7.49964 85.7882C7.41719 85.9116 7.37319 86.0567 7.37319 86.2051C7.37319 86.4041 7.45223 86.595 7.59294 86.7357C7.73366 86.8764 7.9245 86.9554 8.1235 86.9554Z" fill="#FFBCB0"/>
    <path d="M104.11 22.864V105.615C104.11 105.774 104.079 105.931 104.019 106.078C103.958 106.225 103.869 106.359 103.757 106.471C103.644 106.584 103.511 106.673 103.364 106.734C103.217 106.795 103.06 106.826 102.901 106.826H38.9747C38.8157 106.826 38.6582 106.795 38.5114 106.734C38.3645 106.673 38.2311 106.584 38.1188 106.471C38.0065 106.359 37.9175 106.225 37.8569 106.078C37.7963 105.931 37.7653 105.774 37.7656 105.615V42.8338C37.7651 42.6749 37.796 42.5174 37.8565 42.3704C37.917 42.2235 38.006 42.0899 38.1183 41.9774L58.0907 22.0076C58.203 21.8948 58.3365 21.8054 58.4835 21.7444C58.6304 21.6835 58.788 21.6522 58.9471 21.6523H102.911C103.231 21.6551 103.536 21.7841 103.76 22.0111C103.985 22.2381 104.111 22.5447 104.11 22.864Z" fill="white"/>
    <path d="M109.837 70.9584V90.9786C109.836 92.3334 109.297 93.6324 108.339 94.5906C107.381 95.5489 106.083 96.0882 104.728 96.0903H71.8647C70.5097 96.0896 69.2103 95.5512 68.2518 94.5933C67.2934 93.6354 66.7543 92.3363 66.7529 90.9812V70.9584C66.7543 69.6031 67.2933 68.3037 68.2517 67.3454C69.21 66.387 70.5094 65.848 71.8647 65.8466H79.7285C80.0081 64.4994 80.743 63.2896 81.8096 62.4205C82.8762 61.5514 84.2095 61.076 85.5853 61.0742H91.0046C92.3808 61.0759 93.7145 61.5512 94.7816 62.4202C95.8486 63.2893 96.584 64.4992 96.8641 65.8466H104.728C106.083 65.8494 107.381 66.389 108.338 67.3471C109.296 68.3052 109.835 69.6038 109.837 70.9584Z" fill="#DBDBDB"/>
    <path d="M56.8945 61.1455V61.164V88.4992V92.4073C56.8938 92.8795 56.8 93.347 56.6185 93.7829C56.437 94.2189 56.1713 94.6148 55.8367 94.9479C55.502 95.2811 55.1049 95.545 54.6682 95.7246C54.2315 95.9042 53.7636 95.9959 53.2914 95.9946H50.3007C49.349 95.9932 48.4367 95.6145 47.7638 94.9415C47.0908 94.2686 46.7122 93.3563 46.7108 92.4047V88.4966V61.1879V61.1614C46.7024 60.9314 46.7584 60.7037 46.8725 60.5038L50.7487 53.7933C50.8565 53.6082 51.0115 53.455 51.1978 53.3493C51.3841 53.2435 51.5951 53.1891 51.8093 53.1915C52.0238 53.1891 52.2351 53.2438 52.4214 53.3501C52.6078 53.4563 52.7626 53.6102 52.8698 53.796L56.7407 60.5091C56.8493 60.7032 56.9025 60.9233 56.8945 61.1455Z" fill="#DBDBDB"/>
    <path d="M103.667 106.826H41.1669C40.8532 106.826 40.5525 106.702 40.3307 106.48C40.109 106.258 39.9844 105.958 39.9844 105.644V44.263C39.9844 43.9492 40.1082 43.6481 40.329 43.4251L59.8561 23.8981C60.0783 23.6758 60.3796 23.5509 60.6939 23.5508H103.667C103.981 23.5508 104.282 23.6756 104.505 23.8979C104.727 24.1202 104.852 24.4216 104.852 24.7359V66.8152H102.484V25.9184H61.1844L42.36 44.7429V104.459H102.503V94.2352H104.87V105.636C104.871 105.794 104.84 105.95 104.78 106.095C104.72 106.241 104.631 106.373 104.519 106.484C104.407 106.595 104.273 106.682 104.127 106.741C103.981 106.8 103.824 106.829 103.667 106.826Z" fill="#DBDBDB"/>
    <path d="M102.853 106.123H40.3424C40.0285 106.123 39.7275 105.999 39.5053 105.777C39.2831 105.555 39.1579 105.255 39.1572 104.941V43.5598C39.1571 43.4042 39.1878 43.2501 39.2474 43.1063C39.307 42.9625 39.3944 42.832 39.5046 42.722L59.0316 23.195C59.1414 23.0846 59.2719 22.997 59.4157 22.9374C59.5595 22.8778 59.7138 22.8473 59.8694 22.8477H102.853C103.167 22.8484 103.467 22.9735 103.689 23.1957C103.911 23.4179 104.035 23.7189 104.035 24.0328V66.1121H101.668V25.2153H60.3599L41.5355 44.0397V103.756H101.678V93.5268H104.046V104.928C104.048 105.085 104.018 105.241 103.959 105.387C103.899 105.532 103.812 105.665 103.701 105.776C103.589 105.887 103.457 105.975 103.312 106.035C103.166 106.095 103.01 106.125 102.853 106.123Z" fill="#DBDBDB"/>
    <path d="M59.6547 44.6825H39.0088V42.177H58.4006V22.7852H60.9061V43.4284C60.9061 43.7606 60.7744 44.0791 60.5397 44.3142C60.3051 44.5494 59.9868 44.6818 59.6547 44.6825Z" fill="#DBDBDB"/>
    <path d="M102.898 106.826H38.9743C38.6532 106.826 38.3454 106.698 38.1184 106.471C37.8913 106.244 37.7634 105.936 37.7627 105.615V42.8338C37.7641 42.5128 37.8917 42.2052 38.118 41.9774L58.0904 22.0076C58.2028 21.895 58.3362 21.8056 58.4832 21.7446C58.6302 21.6837 58.7877 21.6523 58.9468 21.6523H102.898C103.057 21.652 103.215 21.6831 103.362 21.7439C103.509 21.8046 103.643 21.8939 103.755 22.0065C103.868 22.119 103.957 22.2527 104.018 22.3999C104.079 22.5471 104.11 22.7048 104.11 22.864V65.903H101.689V24.073H59.4373L40.1754 43.3296V104.403H101.686V93.9408H104.107V105.607C104.108 105.766 104.077 105.924 104.017 106.072C103.957 106.22 103.868 106.354 103.756 106.468C103.643 106.581 103.51 106.671 103.363 106.733C103.215 106.794 103.057 106.826 102.898 106.826Z" fill="#757575"/>
    <path d="M58.9365 44.0448H38.9746V41.6241H57.7354V22.8633H60.1587V42.8331C60.1587 42.9931 60.1271 43.1515 60.0655 43.2992C60.0039 43.4469 59.9137 43.581 59.8001 43.6936C59.6865 43.8063 59.5516 43.8953 59.4034 43.9556C59.2552 44.0159 59.0965 44.0462 58.9365 44.0448Z" fill="#757575"/>
    <path d="M106.319 95.1499H73.2299C72.5531 95.1492 71.883 95.0152 71.2579 94.7555C70.6329 94.4959 70.065 94.1156 69.5869 93.6365C69.1088 93.1574 68.7297 92.5888 68.4713 91.9632C68.213 91.3376 68.0804 90.6673 68.0811 89.9904V69.8403C68.0825 68.4752 68.6254 67.1663 69.5907 66.201C70.556 65.2357 71.8648 64.6928 73.2299 64.6914H106.319C107.685 64.6907 108.996 65.2327 109.963 66.1982C110.93 67.1638 111.474 68.4738 111.475 69.8403V89.9904C111.476 90.6679 111.343 91.3389 111.084 91.9651C110.825 92.5912 110.446 93.1601 109.967 93.6393C109.488 94.1185 108.919 94.4986 108.293 94.7578C107.667 95.017 106.996 95.1502 106.319 95.1499ZM73.2299 67.1121C72.5068 67.1128 71.8136 67.4005 71.3025 67.9121C70.7914 68.4237 70.5044 69.1172 70.5044 69.8403V89.9904C70.5051 90.7133 70.7924 91.4064 71.3033 91.9178C71.8142 92.4292 72.507 92.7172 73.2299 92.7186H106.319C106.677 92.719 107.032 92.6487 107.364 92.5118C107.695 92.3748 107.996 92.174 108.25 91.9206C108.504 91.6673 108.706 91.3664 108.843 91.0353C108.981 90.7041 109.052 90.349 109.052 89.9904V69.8403C109.052 69.4816 108.981 69.1264 108.844 68.795C108.706 68.4637 108.505 68.1627 108.251 67.9093C107.997 67.6559 107.696 67.455 107.364 67.3182C107.033 67.1814 106.677 67.1114 106.319 67.1121H73.2299Z" fill="#757575"/>
    <path d="M110.266 78.707H92.8945V81.1304H110.266V78.707Z" fill="#757575"/>
    <path d="M86.6645 78.707H69.293V81.1304H86.6645V78.707Z" fill="#757575"/>
    <path d="M90.8342 85.9987H88.7131C87.8461 85.998 87.0147 85.6534 86.4014 85.0406C85.788 84.4277 85.4428 83.5967 85.4414 82.7296V77.1194C85.4421 76.2519 85.787 75.4201 86.4004 74.8067C87.0139 74.1933 87.8456 73.8484 88.7131 73.8477H90.8342C91.7017 73.8484 92.5335 74.1933 93.1469 74.8067C93.7603 75.4201 94.1052 76.2519 94.1059 77.1194V82.7296C94.1045 83.5967 93.7593 84.4277 93.146 85.0406C92.5326 85.6534 91.7012 85.998 90.8342 85.9987ZM88.7131 76.271C88.4881 76.271 88.2723 76.3604 88.1132 76.5195C87.9541 76.6786 87.8647 76.8944 87.8647 77.1194V82.7296C87.8654 82.9544 87.955 83.1698 88.114 83.3288C88.273 83.4877 88.4883 83.5773 88.7131 83.578H90.8342C91.059 83.5773 91.2744 83.4877 91.4334 83.3288C91.5923 83.1698 91.6819 82.9544 91.6826 82.7296V77.1194C91.6826 76.8944 91.5933 76.6786 91.4342 76.5195C91.275 76.3604 91.0592 76.271 90.8342 76.271H88.7131Z" fill="#757575"/>
    <path d="M98.5285 65.9027H96.1078C96.1071 64.948 95.7276 64.0326 95.0525 63.3576C94.3774 62.6825 93.462 62.3029 92.5073 62.3022H87.0482C86.0935 62.3029 85.1782 62.6825 84.5031 63.3576C83.828 64.0326 83.4484 64.948 83.4477 65.9027H81.0244C81.0265 64.3058 81.6619 62.7748 82.7911 61.6456C83.9203 60.5163 85.4513 59.881 87.0482 59.8789H92.5073C94.1041 59.881 95.6347 60.5164 96.7635 61.6457C97.8924 62.775 98.5271 64.306 98.5285 65.9027Z" fill="#757575"/>
    <path d="M56.6991 90.0756H48.9519C48.7927 90.076 48.635 90.0449 48.4878 89.9841C48.3406 89.9234 48.2069 89.8341 48.0943 89.7215C47.9818 89.609 47.8925 89.4752 47.8317 89.3281C47.771 89.1809 47.7399 89.0232 47.7402 88.864V60.3171C47.7409 59.996 47.8688 59.6882 48.0959 59.4611C48.323 59.234 48.6307 59.1062 48.9519 59.1055H56.6991C57.0204 59.1055 57.3286 59.2331 57.5558 59.4603C57.7831 59.6876 57.9107 59.9958 57.9107 60.3171V88.8666C57.9107 89.0256 57.8794 89.1831 57.8184 89.3299C57.7575 89.4768 57.6682 89.6102 57.5557 89.7225C57.4431 89.8348 57.3095 89.9238 57.1626 89.9844C57.0156 90.045 56.8581 90.076 56.6991 90.0756ZM50.1635 87.6523H55.4901V61.5288H50.1635V87.6523Z" fill="#757575"/>
    <path d="M47.7402 87.6523V91.5604C47.7402 92.5121 48.1181 93.4247 48.7907 94.0979C49.4634 94.7711 50.3758 95.1496 51.3275 95.1503H54.3208C55.2722 95.1496 56.1845 94.7715 56.8575 94.099C57.5306 93.4265 57.9093 92.5145 57.9107 91.5631V87.655L47.7402 87.6523ZM55.4874 91.5604C55.4878 91.7137 55.4578 91.8656 55.3993 92.0073C55.3408 92.1489 55.2549 92.2777 55.1465 92.3861C55.0381 92.4945 54.9093 92.5804 54.7677 92.6389C54.626 92.6974 54.4741 92.7273 54.3208 92.727H51.3301C51.0207 92.727 50.724 92.6041 50.5052 92.3853C50.2865 92.1665 50.1635 91.8698 50.1635 91.5604V90.073H55.4874V91.5604Z" fill="#757575"/>
    <path d="M55.487 90.0769V91.5616C55.4873 91.7149 55.4574 91.8668 55.3989 92.0085C55.3404 92.1502 55.2545 92.2789 55.1461 92.3873C55.0377 92.4957 54.9089 92.5816 54.7672 92.6401C54.6255 92.6986 54.4737 92.7286 54.3204 92.7282H51.3297C51.0203 92.7282 50.7236 92.6053 50.5048 92.3865C50.286 92.1677 50.1631 91.871 50.1631 91.5616V90.0742L55.487 90.0769Z" fill="white"/>
    <path d="M56.7066 61.4789H48.9594C48.746 61.4808 48.5358 61.4262 48.3503 61.3207C48.1647 61.2152 48.0103 61.0626 47.9026 60.8783C47.795 60.694 47.738 60.4845 47.7373 60.271C47.7367 60.0576 47.7924 59.8477 47.8989 59.6627L51.7752 52.9522C51.883 52.767 52.0379 52.6135 52.2241 52.5074C52.4103 52.4012 52.6213 52.3462 52.8357 52.3477C53.0505 52.3453 53.2621 52.4003 53.4485 52.5071C53.635 52.6138 53.7895 52.7684 53.8962 52.9549L57.7698 59.6654C57.8763 59.8504 57.9321 60.0602 57.9314 60.2737C57.9307 60.4871 57.8737 60.6966 57.7661 60.8809C57.6584 61.0653 57.504 61.2179 57.3184 61.3234C57.1329 61.4288 56.9227 61.4834 56.7093 61.4816L56.7066 61.4789ZM51.0566 59.0556H54.6174L52.841 55.9774L51.0566 59.0556Z" fill="#757575"/>
    <path d="M92.8944 32.1929H68.9343C68.7752 32.1929 68.6176 32.1615 68.4706 32.1006C68.3236 32.0397 68.19 31.9505 68.0775 31.838C67.965 31.7254 67.8758 31.5919 67.8149 31.4449C67.754 31.2979 67.7227 31.1403 67.7227 30.9812C67.7227 30.8221 67.754 30.6645 67.8149 30.5175C67.8758 30.3705 67.965 30.2369 68.0775 30.1244C68.19 30.0119 68.3236 29.9227 68.4706 29.8618C68.6176 29.8009 68.7752 29.7695 68.9343 29.7695H92.8864C93.0455 29.7695 93.2031 29.8009 93.3501 29.8618C93.4971 29.9227 93.6307 30.0119 93.7432 30.1244C93.8557 30.2369 93.945 30.3705 94.0058 30.5175C94.0667 30.6645 94.0981 30.8221 94.0981 30.9812C94.0981 31.1403 94.0667 31.2979 94.0058 31.4449C93.945 31.5919 93.8557 31.7254 93.7432 31.838C93.6307 31.9505 93.4971 32.0397 93.3501 32.1006C93.2031 32.1615 93.0455 32.1929 92.8864 32.1929H92.8944Z" fill="#757575"/>
    <path d="M92.8944 40.9819H68.9343C68.6129 40.9819 68.3048 40.8543 68.0775 40.627C67.8503 40.3998 67.7227 40.0916 67.7227 39.7702C67.7227 39.4489 67.8503 39.1407 68.0775 38.9135C68.3048 38.6862 68.6129 38.5586 68.9343 38.5586H92.8864C93.2078 38.5586 93.516 38.6862 93.7432 38.9135C93.9704 39.1407 94.0981 39.4489 94.0981 39.7702C94.0981 40.0916 93.9704 40.3998 93.7432 40.627C93.516 40.8543 93.2078 40.9819 92.8864 40.9819H92.8944Z" fill="#757575"/>
    <path d="M92.8944 49.7775H68.9343C68.7706 49.7851 68.6071 49.7595 68.4535 49.7021C68.3 49.6448 68.1597 49.5568 68.0412 49.4437C67.9226 49.3306 67.8282 49.1945 67.7637 49.0439C67.6992 48.8932 67.666 48.731 67.666 48.5671C67.666 48.4032 67.6992 48.2411 67.7637 48.0904C67.8282 47.9397 67.9226 47.8037 68.0412 47.6905C68.1597 47.5774 68.3 47.4895 68.4535 47.4321C68.6071 47.3748 68.7706 47.3491 68.9343 47.3568H92.8864C93.0501 47.3491 93.2137 47.3748 93.3672 47.4321C93.5208 47.4895 93.661 47.5774 93.7796 47.6905C93.8982 47.8037 93.9926 47.9397 94.057 48.0904C94.1215 48.2411 94.1548 48.4032 94.1548 48.5671C94.1548 48.731 94.1215 48.8932 94.057 49.0439C93.9926 49.1945 93.8982 49.3306 93.7796 49.4437C93.661 49.5568 93.5208 49.6448 93.3672 49.7021C93.2137 49.7595 93.0501 49.7851 92.8864 49.7775H92.8944Z" fill="#757575"/>
    <path d="M109.052 81.1367V89.9948C109.053 90.3543 108.983 90.7105 108.846 91.0429C108.71 91.3754 108.508 91.6774 108.254 91.9318C108 92.1861 107.698 92.3876 107.366 92.5248C107.034 92.662 106.678 92.732 106.318 92.731H73.2295C72.8707 92.7306 72.5156 92.6595 72.1844 92.5218C71.8532 92.384 71.5524 92.1823 71.2992 91.9282C71.0461 91.674 70.8455 91.3724 70.709 91.0407C70.5726 90.7089 70.5029 90.3535 70.5039 89.9948V81.1367H85.4521V82.7275C85.4528 83.5946 85.7974 84.4259 86.4102 85.0393C87.0231 85.6526 87.8542 85.9979 88.7212 85.9993H90.8423C91.7098 85.9986 92.5415 85.6536 93.155 85.0402C93.7684 84.4268 94.1133 83.595 94.114 82.7275V81.1367H109.052Z" fill="#F5F5F5"/>
    <path d="M109.052 69.8467V78.718H94.1062V77.1272C94.1048 76.2602 93.7595 75.4291 93.1462 74.8162C92.5329 74.2034 91.7015 73.8588 90.8344 73.8581H88.7134C87.8468 73.8595 87.0161 74.2044 86.4033 74.8172C85.7906 75.4299 85.4457 76.2606 85.4443 77.1272V78.718H70.4961V69.8467C70.4968 69.124 70.7842 68.4312 71.2951 67.9202C71.8061 67.4092 72.499 67.1218 73.2217 67.1211H106.318C106.677 67.1201 107.032 67.1898 107.364 67.3263C107.695 67.4628 107.997 67.6634 108.251 67.9166C108.505 68.1698 108.706 68.4706 108.844 68.8018C108.981 69.133 109.052 69.4881 109.052 69.8467Z" fill="#FFBCB0"/>
    <path d="M91.6832 77.1153V82.7282C91.6832 82.8395 91.6612 82.9497 91.6185 83.0525C91.5759 83.1552 91.5133 83.2486 91.4345 83.3272C91.3557 83.4057 91.2621 83.468 91.1592 83.5103C91.0563 83.5527 90.946 83.5743 90.8347 83.574H88.7136C88.4891 83.574 88.2737 83.4849 88.1147 83.3264C87.9556 83.1679 87.8659 82.9527 87.8652 82.7282V77.1153C87.8659 76.8908 87.9556 76.6756 88.1147 76.5171C88.2737 76.3586 88.4891 76.2695 88.7136 76.2695H90.8347C90.946 76.2692 91.0563 76.2908 91.1592 76.3332C91.2621 76.3755 91.3557 76.4377 91.4345 76.5163C91.5133 76.5949 91.5759 76.6883 91.6185 76.791C91.6612 76.8938 91.6832 77.004 91.6832 77.1153Z" fill="#F5F5F5"/>
    <path d="M55.4893 61.5273H50.1602V87.6535H55.4893V61.5273Z" fill="#FFBCB0"/>
    <path d="M58.6341 24.3789V42.5299H40.4805L58.6341 24.3789Z" fill="#DBDBDB"/>
  </g>
  <defs>
    <clipPath id="clip0_11492_115912">
      <rect width="147.862" height="130" fill="white" transform="translate(0.137695 0.00390625)"/>
    </clipPath>
  </defs>
</svg>
